<svg xmlns="http://www.w3.org/2000/svg" width="30" height="30" viewBox="0 0 30 30">
  <metadata><?xpacket begin="﻿" id="W5M0MpCehiHzreSzNTczkc9d"?>
<x:xmpmeta xmlns:x="adobe:ns:meta/" x:xmptk="Adobe XMP Core 5.6-c142 79.160924, 2017/07/13-01:06:39        ">
   <rdf:RDF xmlns:rdf="http://www.w3.org/1999/02/22-rdf-syntax-ns#">
      <rdf:Description rdf:about=""/>
   </rdf:RDF>
</x:xmpmeta>
                                                                                                    
                                                                                                    
                                                                                                    
                                                                                                    
                                                                                                    
                                                                                                    
                                                                                                    
                                                                                                    
                                                                                                    
                                                                                                    
                                                                                                    
                                                                                                    
                                                                                                    
                                                                                                    
                                                                                                    
                                                                                                    
                                                                                                    
                                                                                                    
                                                                                                    
                                                                                                    
                           
<?xpacket end="w"?></metadata>
<defs>
    <style>
      .cls-1 {
        fill: #c60077;
        fill-rule: evenodd;
        opacity: 0.7;
      }
    </style>
  </defs>
  <path id="akcii" class="cls-1" d="M930.752,353.46l-0.678-1.076a0.746,0.746,0,0,1,0-.8l0.678-1.077a1.6,1.6,0,0,0-.378-2.119l-1.01-.782a0.746,0.746,0,0,1-.277-0.752l0.264-1.24a1.606,1.606,0,0,0-1.089-1.863l-1.22-.395a0.753,0.753,0,0,1-.521-0.612l-0.181-1.256a1.625,1.625,0,0,0-1.669-1.382l-1.283.041a0.762,0.762,0,0,1-.7-0.4l-0.605-1.118a1.639,1.639,0,0,0-2.047-.736l-1.191.473a0.77,0.77,0,0,1-.8-0.139l-0.956-.846a1.645,1.645,0,0,0-2.179,0l-0.955.846a0.77,0.77,0,0,1-.8.139l-1.191-.473a1.641,1.641,0,0,0-2.048.736l-0.6,1.118a0.763,0.763,0,0,1-.7.4l-1.283-.041a1.623,1.623,0,0,0-1.669,1.382l-0.181,1.256a0.755,0.755,0,0,1-.521.612l-1.22.395a1.606,1.606,0,0,0-1.089,1.863l0.264,1.24a0.746,0.746,0,0,1-.277.752l-1.01.782a1.6,1.6,0,0,0-.378,2.119l0.678,1.077a0.746,0.746,0,0,1,0,.8l-0.678,1.076a1.6,1.6,0,0,0,.378,2.119l1.01,0.783a0.745,0.745,0,0,1,.277.751l-0.264,1.241a1.606,1.606,0,0,0,1.089,1.863l1.22,0.394a0.756,0.756,0,0,1,.521.613l0.181,1.255a1.626,1.626,0,0,0,1.669,1.383l1.283-.042a0.765,0.765,0,0,1,.7.4l0.6,1.118a1.639,1.639,0,0,0,2.048.736l1.191-.472a0.766,0.766,0,0,1,.8.139l0.955,0.846a1.647,1.647,0,0,0,2.179,0l0.956-.847a0.768,0.768,0,0,1,.8-0.138l1.191,0.472a1.638,1.638,0,0,0,2.047-.736l0.605-1.118a0.765,0.765,0,0,1,.7-0.4l1.282,0.042a1.625,1.625,0,0,0,1.67-1.383l0.181-1.255a0.754,0.754,0,0,1,.52-0.613l1.221-.394a1.607,1.607,0,0,0,1.089-1.863l-0.264-1.241a0.745,0.745,0,0,1,.277-0.751l1.01-.783A1.6,1.6,0,0,0,930.752,353.46Zm-0.913,1.447-1.009.782a1.591,1.591,0,0,0-.59,1.6l0.264,1.24a0.755,0.755,0,0,1-.512.876l-1.22.394a1.608,1.608,0,0,0-1.108,1.3l-0.181,1.255a0.762,0.762,0,0,1-.784.65l-1.283-.042a1.626,1.626,0,0,0-1.493.851l-0.605,1.119a0.769,0.769,0,0,1-.962.345l-1.191-.472a1.638,1.638,0,0,0-1.7.295l-0.955.847a0.774,0.774,0,0,1-1.024,0l-0.955-.847a1.638,1.638,0,0,0-1.086-.413,1.656,1.656,0,0,0-.612.118l-1.191.472a0.769,0.769,0,0,1-.962-0.345l-0.605-1.119a1.629,1.629,0,0,0-1.493-.851l-1.283.042a0.761,0.761,0,0,1-.784-0.65l-0.181-1.255a1.607,1.607,0,0,0-1.109-1.3l-1.22-.394a0.755,0.755,0,0,1-.511-0.876l0.264-1.24a1.591,1.591,0,0,0-.59-1.6l-1.01-.782a0.75,0.75,0,0,1-.177-1l0.678-1.076a1.584,1.584,0,0,0,0-1.7l-0.678-1.076a0.749,0.749,0,0,1,.177-1l1.01-.782a1.592,1.592,0,0,0,.59-1.6l-0.264-1.24a0.754,0.754,0,0,1,.511-0.875l1.22-.395a1.6,1.6,0,0,0,1.109-1.3l0.181-1.255a0.762,0.762,0,0,1,.784-0.649L908.584,341a1.627,1.627,0,0,0,1.493-.851l0.605-1.118a0.77,0.77,0,0,1,.962-0.346l1.191,0.473a1.639,1.639,0,0,0,1.7-.3l0.955-.846a0.774,0.774,0,0,1,1.024,0l0.955,0.846a1.639,1.639,0,0,0,1.7.3l1.191-.473a0.771,0.771,0,0,1,.962.346l0.605,1.118a1.626,1.626,0,0,0,1.493.851l1.283-.041a0.762,0.762,0,0,1,.784.649l0.181,1.255a1.6,1.6,0,0,0,1.108,1.3l1.22,0.395a0.753,0.753,0,0,1,.512.875l-0.264,1.24a1.593,1.593,0,0,0,.589,1.6l1.01,0.782a0.749,0.749,0,0,1,.178,1l-0.678,1.076a1.584,1.584,0,0,0,0,1.7l0.678,1.076A0.75,0.75,0,0,1,929.839,354.907Zm-2.767-1.856a0.433,0.433,0,0,0-.487.366,10.5,10.5,0,0,1-3.53,6.489,10.784,10.784,0,0,1-14.11,0,10.5,10.5,0,0,1-3.53-6.489,0.434,0.434,0,0,0-.487-0.366,0.429,0.429,0,0,0-.371.481,11.353,11.353,0,0,0,3.816,7.015,11.658,11.658,0,0,0,15.254,0,11.353,11.353,0,0,0,3.816-7.015A0.429,0.429,0,0,0,927.072,353.051Zm0.369-2.628a11.355,11.355,0,0,0-3.819-7.007,11.66,11.66,0,0,0-15.245,0,11.36,11.36,0,0,0-3.819,7.009,0.43,0.43,0,0,0,.371.482,0.565,0.565,0,0,0,.059,0,0.432,0.432,0,0,0,.428-0.37,10.5,10.5,0,0,1,3.532-6.483,10.785,10.785,0,0,1,14.1,0,10.5,10.5,0,0,1,3.533,6.481A0.432,0.432,0,0,0,927.441,350.423Zm-7.862,1.027c-1.322,0-2.318.56-2.318,2.086v2.509c0,1.526,1,2.085,2.318,2.085,1.305,0,2.317-.559,2.317-2.085v-2.509C921.9,352.01,920.884,351.45,919.579,351.45Zm1.081,4.6a0.93,0.93,0,0,1-1.081,1,0.918,0.918,0,0,1-1.065-1v-2.509h0a0.919,0.919,0,0,1,1.065-1,0.931,0.931,0,0,1,1.081,1v2.509Zm-8.669-10.359c-1.322,0-2.318.56-2.318,2.085v2.509c0,1.526,1,2.086,2.318,2.086,1.3,0,2.317-.56,2.317-2.086v-2.509C914.308,346.246,913.3,345.686,911.991,345.686Zm1.081,4.594a0.931,0.931,0,0,1-1.081,1,0.918,0.918,0,0,1-1.065-1v-2.509a0.918,0.918,0,0,1,1.065-1,0.931,0.931,0,0,1,1.081,1v2.509Zm5.837-5.255a0.539,0.539,0,0,0-.515.305l-6.3,12.461a0.471,0.471,0,0,0-.069.254,0.66,0.66,0,0,0,.669.628,0.652,0.652,0,0,0,.584-0.322l6.3-12.41a0.7,0.7,0,0,0,.051-0.272A0.7,0.7,0,0,0,918.909,345.025Z" transform="translate(-901 -337)"/>
</svg>
