<svg xmlns="http://www.w3.org/2000/svg" width="25" height="17.031" viewBox="0 0 25 17.031">
  <metadata><?xpacket begin="﻿" id="W5M0MpCehiHzreSzNTczkc9d"?>
<x:xmpmeta xmlns:x="adobe:ns:meta/" x:xmptk="Adobe XMP Core 5.6-c142 79.160924, 2017/07/13-01:06:39        ">
   <rdf:RDF xmlns:rdf="http://www.w3.org/1999/02/22-rdf-syntax-ns#">
      <rdf:Description rdf:about=""/>
   </rdf:RDF>
</x:xmpmeta>





















<?xpacket end="w"?></metadata>
<defs>
    <style>
      .cls-1 {
        fill: #e380bb;
        fill-rule: evenodd;
        opacity: 0.5;
      }
    </style>
  </defs>
  <path id="arrow" class="cls-1" d="M682.832,821.739a0.9,0.9,0,0,1-1.258,0,0.842,0.842,0,0,1,0-1.207l6.38-6.178H666.9a0.873,0.873,0,0,1-.894-0.853,0.883,0.883,0,0,1,.894-0.865h21.053l-6.38-6.167a0.855,0.855,0,0,1,0-1.218,0.9,0.9,0,0,1,1.258,0l7.89,7.641a0.84,0.84,0,0,1,0,1.206Z" transform="translate(-666 -805)"/>
</svg>
