<svg xmlns="http://www.w3.org/2000/svg" width="27" height="40" viewBox="0 0 27 40">
  <metadata><?xpacket begin="﻿" id="W5M0MpCehiHzreSzNTczkc9d"?>
<x:xmpmeta xmlns:x="adobe:ns:meta/" x:xmptk="Adobe XMP Core 5.6-c142 79.160924, 2017/07/13-01:06:39        ">
   <rdf:RDF xmlns:rdf="http://www.w3.org/1999/02/22-rdf-syntax-ns#">
      <rdf:Description rdf:about=""/>
   </rdf:RDF>
</x:xmpmeta>
                                                                                                    
                                                                                                    
                                                                                                    
                                                                                                    
                                                                                                    
                                                                                                    
                                                                                                    
                                                                                                    
                                                                                                    
                                                                                                    
                                                                                                    
                                                                                                    
                                                                                                    
                                                                                                    
                                                                                                    
                                                                                                    
                                                                                                    
                                                                                                    
                                                                                                    
                                                                                                    
                           
<?xpacket end="w"?></metadata>
<defs>
    <style>
      .cls-1 {
        fill: #333;
        fill-rule: evenodd;
        opacity: 0.3;
      }
    </style>
  </defs>
  <path id="bukety" class="cls-1" d="M718.977,92.4a4.111,4.111,0,0,0,.553-2.061V87.955a1.934,1.934,0,0,0-1.123-1.771,1.908,1.908,0,0,0-2.067.281l-0.887.756-0.887-.756a8.467,8.467,0,0,0-4.2,0l-0.888.756-0.887-.756a8.468,8.468,0,0,0-4.2,0l-0.887.756-0.887-.756a8.458,8.458,0,0,0-4.2,0l-0.887.756-0.888-.756a1.907,1.907,0,0,0-2.066-.28,1.933,1.933,0,0,0-1.123,1.771V90.34A4.112,4.112,0,0,0,694,92.4c-1.088,1.1-1.462,6.571-.224,11.216a19.321,19.321,0,0,0,11.106,13.054,7.285,7.285,0,0,0-1.911,1.64,0.666,0.666,0,0,0,.09.932,0.654,0.654,0,0,0,.926-0.091,6.218,6.218,0,0,1,2.179-1.669,20.013,20.013,0,0,1,1.194,3.571,0.658,0.658,0,0,0,.641.514,0.62,0.62,0,0,0,.147-0.017,0.662,0.662,0,0,0,.494-0.793,21.08,21.08,0,0,0-.811-2.685,5.932,5.932,0,0,1,2.328,3.389,8.094,8.094,0,0,1,.26,2.543,11.95,11.95,0,0,1-1.373.39c0.007-.3,0-0.614-0.014-0.927a0.658,0.658,0,1,0-1.314.069c0.019,0.367.019,0.725,0,1.073a11.847,11.847,0,0,1-5.161-.605,7.917,7.917,0,0,1,.433-3.091,0.664,0.664,0,0,0-.39-0.85,0.656,0.656,0,0,0-.844.393,9.245,9.245,0,0,0-.5,3.761,1.141,1.141,0,0,0,.15.644,0.666,0.666,0,0,0,.3.239,13.173,13.173,0,0,0,9.561,0,0.662,0.662,0,0,0,.413-0.514,9.092,9.092,0,0,0-.242-3.424,7.324,7.324,0,0,0-3.345-4.492,19.56,19.56,0,0,0,11.545-15.043,0.658,0.658,0,1,0-1.295-.231,18.344,18.344,0,0,1-11.661,14.439,17.713,17.713,0,0,1-3.812-10.372,0.658,0.658,0,1,0-1.314.07,19.624,19.624,0,0,0,2.887,9.455,18.312,18.312,0,0,1-5.853-4.656,18.567,18.567,0,0,1-3.535-7.013,23.646,23.646,0,0,1-.781-6.142,9.118,9.118,0,0,0,2.966,1.9,20.059,20.059,0,0,0,4.615,1.275,22.255,22.255,0,0,0-.306,2.836,0.661,0.661,0,0,0,.627.692h0.031a0.66,0.66,0,0,0,.656-0.632,20.969,20.969,0,0,1,.3-2.718,29.776,29.776,0,0,0,3.326.184,24.326,24.326,0,0,0,9.246-1.638,9.112,9.112,0,0,0,2.969-1.9c0,0.647-.021,1.4-0.094,2.217a0.66,0.66,0,0,0,.6.718l0.059,0a0.661,0.661,0,0,0,.655-0.6C720.158,96.812,720.035,93.793,718.977,92.4Zm-5.26-4.926,1.311,1.118a0.655,0.655,0,0,0,.85,0l1.312-1.118a0.61,0.61,0,0,1,.664-0.09,0.617,0.617,0,0,1,.361.569V90.34a2.789,2.789,0,0,1-1.673,2.557V91.31a1.936,1.936,0,0,0-2.989-1.638V87.955a1.984,1.984,0,0,0-.1-0.614A0.63,0.63,0,0,1,713.717,87.475Zm-5.977,0,1.311,1.118a0.653,0.653,0,0,0,.849,0l1.313-1.118a0.615,0.615,0,0,1,.819.012,0.6,0.6,0,0,1,.206.467V90.34c0,0.014,0,.028,0,0.042l-0.659-.562a10.794,10.794,0,0,0-4-.149V87.955a2.012,2.012,0,0,0-.1-0.613A0.625,0.625,0,0,1,707.74,87.475Zm-5.978,0,1.313,1.118a0.653,0.653,0,0,0,.849,0l1.312-1.118a0.615,0.615,0,0,1,.82.012,0.6,0.6,0,0,1,.2.467V90.34c0,0.014,0,.028,0,0.042L705.6,89.82a1.916,1.916,0,0,0-2.1-.264l-0.032-.017a1.905,1.905,0,0,0-1.866.131V87.955a2.009,2.009,0,0,0-.1-0.613A0.616,0.616,0,0,1,701.762,87.476Zm-6.64-.09a0.61,0.61,0,0,1,.664.09l1.311,1.118a0.655,0.655,0,0,0,.85,0l1.313-1.118a0.614,0.614,0,0,1,.817.01,0.606,0.606,0,0,1,.207.469V90.34c0,0.014,0,.028,0,0.042l-0.659-.562a1.908,1.908,0,0,0-2.067-.281,1.934,1.934,0,0,0-1.123,1.771V92.9a2.788,2.788,0,0,1-1.673-2.558V87.955A0.617,0.617,0,0,1,695.122,87.386Zm4.731,11.187a16.279,16.279,0,0,1-2.1-.716c-2.111-.9-3.322-2.072-3.322-3.219a2.044,2.044,0,0,1,.425-1.192,4.044,4.044,0,0,0,1.623.864,4.1,4.1,0,0,0,3.373,3.437v0.825h0Zm-2.1-4.877V91.31a0.618,0.618,0,0,1,.361-0.569,0.662,0.662,0,0,1,.271-0.06,0.592,0.592,0,0,1,.393.15l1.312,1.118a0.654,0.654,0,0,0,.85,0l1.312-1.118a0.611,0.611,0,0,1,.664-0.09,0.619,0.619,0,0,1,.361.569V93.7A2.762,2.762,0,1,1,697.749,93.7Zm8.082,5.687a28.071,28.071,0,0,1-3.087-.237l-0.023,0c-0.531-.072-1.05-0.158-1.552-0.259V97.747a2.784,2.784,0,0,1,4.662,0v1.637Zm-1.579-4.057a4.1,4.1,0,0,0,.336-1.63V91.31a1.983,1.983,0,0,0-.1-0.614,0.608,0.608,0,0,1,.26.135l1.313,1.118a0.653,0.653,0,0,0,.849,0l1.312-1.118a0.615,0.615,0,0,1,.82.012,0.6,0.6,0,0,1,.205.467V93.7a2.789,2.789,0,0,1-.348,1.352A2.75,2.75,0,0,1,704.252,95.325Zm7.555,3.558a26.64,26.64,0,0,1-4.661.5V97.745a2.785,2.785,0,0,1,4.661,0v1.138Zm-1.578-3.558a4.135,4.135,0,0,0,.337-1.63V91.31a2.01,2.01,0,0,0-.1-0.613,0.617,0.617,0,0,1,.257.134l1.312,1.118a0.655,0.655,0,0,0,.85,0l1.313-1.118a0.614,0.614,0,0,1,.818.012,0.6,0.6,0,0,1,.206.468v2.385a2.775,2.775,0,0,1-2.762,2.782A2.756,2.756,0,0,1,710.229,95.325Zm4.993,2.531a16.191,16.191,0,0,1-2.1.716V97.745a4.085,4.085,0,0,0,3.372-3.435,4.048,4.048,0,0,0,1.625-.865,2.046,2.046,0,0,1,.425,1.192C718.544,95.784,717.333,96.957,715.222,97.856Z" transform="translate(-693 -86)"/>
</svg>
