<svg xmlns="http://www.w3.org/2000/svg" width="22" height="20" viewBox="0 0 22 20">
  <metadata><?xpacket begin="﻿" id="W5M0MpCehiHzreSzNTczkc9d"?>
<x:xmpmeta xmlns:x="adobe:ns:meta/" x:xmptk="Adobe XMP Core 5.6-c142 79.160924, 2017/07/13-01:06:39        ">
   <rdf:RDF xmlns:rdf="http://www.w3.org/1999/02/22-rdf-syntax-ns#">
      <rdf:Description rdf:about=""/>
   </rdf:RDF>
</x:xmpmeta>
                                                                                                    
                                                                                                    
                                                                                                    
                                                                                                    
                                                                                                    
                                                                                                    
                                                                                                    
                                                                                                    
                                                                                                    
                                                                                                    
                                                                                                    
                                                                                                    
                                                                                                    
                                                                                                    
                                                                                                    
                                                                                                    
                                                                                                    
                                                                                                    
                                                                                                    
                                                                                                    
                           
<?xpacket end="w"?></metadata>
<defs>
    <style>
      .cls-1 {
        fill: #c60077;
        fill-rule: evenodd;
        opacity: 0.8;
      }
    </style>
  </defs>
  <path id="buy" class="cls-1" d="M1422.29,36.443h-5.11l-3.51-5.917a1.062,1.062,0,0,0-.66-0.49,1.073,1.073,0,0,0-.81.105,0.212,0.212,0,0,1-.4,0,1.079,1.079,0,0,0-.81-0.105,1.063,1.063,0,0,0-.66.49l-3.51,5.917h-5.11a0.7,0.7,0,0,0-.71.694v1.79a0.7,0.7,0,0,0,.71.693h0.05l0.64,9.068A1.436,1.436,0,0,0,1403.84,50h16.32a1.436,1.436,0,0,0,1.44-1.312l0.64-9.068h0.05a0.7,0.7,0,0,0,.71-0.693v-1.79A0.7,0.7,0,0,0,1422.29,36.443Zm-9.93-5.49a0.355,0.355,0,0,1,.18-0.231,0.4,0.4,0,0,1,.19-0.051,0.481,0.481,0,0,1,.11.013,0.368,0.368,0,0,1,.23.177l3.68,6.2a0.388,0.388,0,0,1-.44.558,0.389,0.389,0,0,1-.24-0.177l-3.67-6.2A0.329,0.329,0,0,1,1412.36,30.953Zm-0.36.961,2.68,4.528h-5.36Zm-4.75,5.147,3.68-6.2a0.37,0.37,0,0,1,.23-0.177,0.407,0.407,0,0,1,.3.038,0.387,0.387,0,0,1,.18.231,0.33,0.33,0,0,1-.04.289l-3.67,6.2a0.39,0.39,0,0,1-.24.177,0.382,0.382,0,0,1-.29-0.038A0.373,0.373,0,0,1,1407.25,37.061Zm15.06,1.865a0.022,0.022,0,0,1-.02.022h-1.47a0.336,0.336,0,1,0,0,.671h0.73l-0.64,9.022a0.746,0.746,0,0,1-.75.687h-16.32a0.746,0.746,0,0,1-.75-0.687l-0.64-9.022h16.9a0.336,0.336,0,1,0,0-.671h-17.64a0.022,0.022,0,0,1-.02-0.022v-1.79a0.022,0.022,0,0,1,.02-0.022h4.81a1.05,1.05,0,0,0,.53,1.048,1.1,1.1,0,0,0,.54.142,1.116,1.116,0,0,0,.28-0.036,1.091,1.091,0,0,0,.66-0.49l0.39-.663h6.16l0.39,0.663a1.091,1.091,0,0,0,.66.49,1.116,1.116,0,0,0,.28.036,1.1,1.1,0,0,0,.54-0.142,1.05,1.05,0,0,0,.53-1.048h4.81a0.022,0.022,0,0,1,.02.022v1.79h0Zm-9.58,3.96a0.336,0.336,0,0,0-.34.335v3.938a0.39,0.39,0,0,1-.78,0V41.789a0.39,0.39,0,0,1,.78,0,0.336,0.336,0,0,0,.34.336,0.345,0.345,0,0,0,.35-0.336,1.08,1.08,0,0,0-2.16,0v5.369a1.08,1.08,0,0,0,2.16,0V43.221A0.345,0.345,0,0,0,1412.73,42.886Zm2.94,0a0.336,0.336,0,0,0-.34.335v3.938a0.389,0.389,0,0,1-.39.38,0.383,0.383,0,0,1-.39-0.38V41.789a0.383,0.383,0,0,1,.39-0.38,0.389,0.389,0,0,1,.39.38,0.336,0.336,0,0,0,.34.336,0.345,0.345,0,0,0,.35-0.336,1.08,1.08,0,0,0-2.16,0v5.369a1.08,1.08,0,0,0,2.16,0V43.221A0.345,0.345,0,0,0,1415.67,42.886Zm2.94,0a0.336,0.336,0,0,0-.34.335v3.938a0.389,0.389,0,0,1-.39.38,0.383,0.383,0,0,1-.39-0.38V41.789a0.383,0.383,0,0,1,.39-0.38,0.389,0.389,0,0,1,.39.38,0.336,0.336,0,0,0,.34.336,0.345,0.345,0,0,0,.35-0.336,1.08,1.08,0,0,0-2.16,0v5.369a1.08,1.08,0,0,0,2.16,0V43.221A0.345,0.345,0,0,0,1418.61,42.886Zm-11.75,0a0.345,0.345,0,0,0-.35.335v3.938a0.383,0.383,0,0,1-.39.38,0.389,0.389,0,0,1-.39-0.38V41.789a0.389,0.389,0,0,1,.39-0.38,0.383,0.383,0,0,1,.39.38,0.345,0.345,0,0,0,.35.336,0.336,0.336,0,0,0,.34-0.336,1.08,1.08,0,0,0-2.16,0v5.369a1.08,1.08,0,0,0,2.16,0V43.221A0.336,0.336,0,0,0,1406.86,42.886Zm2.94,0a0.339,0.339,0,0,0-.35.335v3.938a0.383,0.383,0,0,1-.39.38,0.389,0.389,0,0,1-.39-0.38V41.789a0.389,0.389,0,0,1,.39-0.38,0.383,0.383,0,0,1,.39.38,0.345,0.345,0,0,0,.69,0,1.08,1.08,0,0,0-2.16,0v5.369a1.08,1.08,0,0,0,2.16,0V43.221A0.336,0.336,0,0,0,1409.8,42.886Z" transform="translate(-1401 -30)"/>
</svg>
