<svg xmlns="http://www.w3.org/2000/svg" width="14" height="20" viewBox="0 0 14 20">
  <metadata><?xpacket begin="﻿" id="W5M0MpCehiHzreSzNTczkc9d"?>
<x:xmpmeta xmlns:x="adobe:ns:meta/" x:xmptk="Adobe XMP Core 5.6-c142 79.160924, 2017/07/13-01:06:39        ">
   <rdf:RDF xmlns:rdf="http://www.w3.org/1999/02/22-rdf-syntax-ns#">
      <rdf:Description rdf:about=""/>
   </rdf:RDF>
</x:xmpmeta>
                                                                                                    
                                                                                                    
                                                                                                    
                                                                                                    
                                                                                                    
                                                                                                    
                                                                                                    
                                                                                                    
                                                                                                    
                                                                                                    
                                                                                                    
                                                                                                    
                                                                                                    
                                                                                                    
                                                                                                    
                                                                                                    
                                                                                                    
                                                                                                    
                                                                                                    
                                                                                                    
                           
<?xpacket end="w"?></metadata>
<defs>
    <style>
      .cls-1 {
        fill: #c60077;
        fill-rule: evenodd;
        opacity: 0.8;
      }
    </style>
  </defs>
  <path id="city" class="cls-1" d="M1129.07,34.383a2.556,2.556,0,1,0,2.55,2.557A2.562,2.562,0,0,0,1129.07,34.383Zm0,4.382a1.826,1.826,0,1,1,1.82-1.826A1.829,1.829,0,0,1,1129.07,38.765Zm4.88-6.714a7,7,0,0,0-9.9,0,7.978,7.978,0,0,0-.65,9.843L1129,50l5.6-8.092A7.979,7.979,0,0,0,1133.95,32.051Zm0.06,9.427L1129,48.714l-5.01-7.246a7.2,7.2,0,0,1,.58-8.9,6.271,6.271,0,0,1,8.87,0A7.2,7.2,0,0,1,1134.01,41.479Z" transform="translate(-1122 -30)"/>
</svg>
