<svg xmlns="http://www.w3.org/2000/svg" width="27.82" height="40" viewBox="0 0 27.82 40">
  <metadata><?xpacket begin="﻿" id="W5M0MpCehiHzreSzNTczkc9d"?>
<x:xmpmeta xmlns:x="adobe:ns:meta/" x:xmptk="Adobe XMP Core 5.6-c142 79.160924, 2017/07/13-01:06:39        ">
   <rdf:RDF xmlns:rdf="http://www.w3.org/1999/02/22-rdf-syntax-ns#">
      <rdf:Description rdf:about=""/>
   </rdf:RDF>
</x:xmpmeta>
                                                                                                    
                                                                                                    
                                                                                                    
                                                                                                    
                                                                                                    
                                                                                                    
                                                                                                    
                                                                                                    
                                                                                                    
                                                                                                    
                                                                                                    
                                                                                                    
                                                                                                    
                                                                                                    
                                                                                                    
                                                                                                    
                                                                                                    
                                                                                                    
                                                                                                    
                                                                                                    
                           
<?xpacket end="w"?></metadata>
<defs>
    <style>
      .cls-1 {
        fill: #333;
        fill-rule: evenodd;
        opacity: 0.3;
      }
    </style>
  </defs>
  <path id="dekor" class="cls-1" d="M1230.83,100.72a0.508,0.508,0,0,0,.5.508h8.04a14.339,14.339,0,0,1,1.1,2.579c0.05,0.147.09,0.29,0.15,0.437,0.04,0.106.07,0.2,0.11,0.317a0.3,0.3,0,0,0,.06.079,11.029,11.029,0,0,0,.66,1.3h-4.46a0.508,0.508,0,1,0,0,1.016h5.14a15.174,15.174,0,0,0,2.52,2.666c0.41,0.349.82,0.667,1.22,0.954,0.03,0.111.07,0.223,0.1,0.33a5.9,5.9,0,0,0,3.05,3.351,6.2,6.2,0,0,0,.61.244v5.26a0.5,0.5,0,1,0,1,0v-4.975a6.892,6.892,0,0,0,1.41.148,7.17,7.17,0,0,0,3.24-.791v11.35a0.509,0.509,0,0,0,.5.507,0.5,0.5,0,0,0,.5-0.507V113.526a7.153,7.153,0,0,0,2.32-2.83,0.532,0.532,0,0,0,.02-0.373,0.5,0.5,0,0,0-.39-0.359,0.523,0.523,0,0,0-.49.192,4.994,4.994,0,0,1-1.46,1.288V100.721a0.5,0.5,0,0,0-.5-0.508h-14.85a6.907,6.907,0,0,1,1.21-3.626,3.978,3.978,0,0,0,1.08.166,4.109,4.109,0,0,0,1.72-.381,4.5,4.5,0,0,0,2.35-2.559l0.49-1.322a0.512,0.512,0,0,0-.06-0.479,0.549,0.549,0,0,0-.43-0.21c-0.03.012-3.86,0.131-5.33-2.01a0.488,0.488,0,0,0-.69-0.126,0.508,0.508,0,0,0-.13.706c1.36,1.974,4.12,2.364,5.45,2.433l-0.24.649a3.5,3.5,0,0,1-1.81,1.99,3.082,3.082,0,0,1-2.4.089,3.172,3.172,0,0,1-1.77-1.746,3.631,3.631,0,0,1-.03-2.636l1.29-3.458a1.333,1.333,0,0,1,1.18-.651,5.674,5.674,0,0,1,2.59.406c1.56,0.6,2.28,1.612,2.11,2.069a3.492,3.492,0,0,1-2.84-.016,4.96,4.96,0,0,1-1.78-1.07,2.05,2.05,0,0,1,1.99.089,1.82,1.82,0,0,1,1.04.855,0.5,0.5,0,0,0,.65.3,0.516,0.516,0,0,0,.3-0.652,2.787,2.787,0,0,0-1.58-1.435,3.453,3.453,0,0,0-2.64-.185,1.173,1.173,0,0,0-.69.65c-0.47,1.272,2.07,2.287,2.36,2.4,1.4,0.534,3.7.573,4.12-.572,0.44-1.173-.72-2.627-2.69-3.381a6.651,6.651,0,0,0-3.07-.467,2.219,2.219,0,0,0-1.99,1.3l-1.29,3.454a4.609,4.609,0,0,0,.05,3.388,4.161,4.161,0,0,0,1.75,2,8,8,0,0,0-1.27,4.025h-0.04a14.4,14.4,0,0,0-1.03-1.183,1.753,1.753,0,0,0,.28-0.927,1.834,1.834,0,0,0-1.84-1.9,1.832,1.832,0,0,0-1.83,1.817,1.851,1.851,0,0,0,1.79,1.9h0.05a1.778,1.778,0,0,0,.81-0.206c0.17,0.182.32,0.345,0.46,0.5h-7.25A0.515,0.515,0,0,0,1230.83,100.72Zm14.79,8.391q-0.165-.133-0.33-0.275a14.229,14.229,0,0,1-1.87-1.883h2.5A5.889,5.889,0,0,0,1245.62,109.111Zm4.01,4.3a1.889,1.889,0,0,1-.19-0.072,4.887,4.887,0,0,1-2-1.72,14.377,14.377,0,0,0,2.19,1.036v0.756Zm0-1.847a14.432,14.432,0,0,1-2.89-1.6,4.991,4.991,0,0,1,.26-3h2.63v4.605Zm1,2.178v-0.765a8.9,8.9,0,0,0,3.39.3,7.535,7.535,0,0,0,1.22-.25A6.131,6.131,0,0,1,1250.63,113.739Zm4.65-12.511V111.92a6.282,6.282,0,0,1-1.38.344,8.1,8.1,0,0,1-3.27-.348v-5.469a0.508,0.508,0,0,0-.5-0.508h-2.52a3.789,3.789,0,0,1,1.59-1.156,3.714,3.714,0,0,1,2.54-.009,1.652,1.652,0,0,0,.11.759,1.734,1.734,0,0,0,1.62,1.135,1.75,1.75,0,1,0-.62-3.4,1.667,1.667,0,0,0-.74.56,4.672,4.672,0,0,0-2.98-.075,2.533,2.533,0,0,0-.61-1.689,3.637,3.637,0,0,0-1.15-.843l7.91,0h0Zm-2.48,3.385a0.748,0.748,0,0,1,.41-0.387A0.743,0.743,0,1,1,1252.8,104.613Zm-5.03-1.872a1.529,1.529,0,0,1,.35,1.268,0.485,0.485,0,0,1-.26.3,2.411,2.411,0,0,0-1.37-1.867,0.508,0.508,0,0,0-.35.953,1.537,1.537,0,0,1,.77,1.6,0.78,0.78,0,0,1-.97.554c-0.61-.1-0.88-0.428-1.02-2.238a4.6,4.6,0,0,0-.53-1.8A5.459,5.459,0,0,1,1247.77,102.741Zm-4.7-1.513v0.009a4.335,4.335,0,0,1,.85,2.151,4.529,4.529,0,0,0,.73,2.552h-1.99a10.827,10.827,0,0,1-1.1-2.054,0.361,0.361,0,0,1-.04-0.1,9.027,9.027,0,0,1-.58-2.56h2.13Zm-5.76-2.321v0.508l-0.03-.508a0.847,0.847,0,0,1,.04-1.692h0.01a0.813,0.813,0,0,1,.58.262A0.849,0.849,0,0,1,1237.31,98.907Z" transform="translate(-1230.84 -86)"/>
</svg>
