<svg xmlns="http://www.w3.org/2000/svg" width="24.031" height="24" viewBox="0 0 24.031 24">
  <metadata><?xpacket begin="﻿" id="W5M0MpCehiHzreSzNTczkc9d"?>
<x:xmpmeta xmlns:x="adobe:ns:meta/" x:xmptk="Adobe XMP Core 5.6-c142 79.160924, 2017/07/13-01:06:39        ">
   <rdf:RDF xmlns:rdf="http://www.w3.org/1999/02/22-rdf-syntax-ns#">
      <rdf:Description rdf:about=""/>
   </rdf:RDF>
</x:xmpmeta>
                                                                                                    
                                                                                                    
                                                                                                    
                                                                                                    
                                                                                                    
                                                                                                    
                                                                                                    
                                                                                                    
                                                                                                    
                                                                                                    
                                                                                                    
                                                                                                    
                                                                                                    
                                                                                                    
                                                                                                    
                                                                                                    
                                                                                                    
                                                                                                    
                                                                                                    
                                                                                                    
                           
<?xpacket end="w"?></metadata>
<defs>
    <style>
      .cls-1 {
        fill: #c60077;
        fill-rule: evenodd;
        opacity: 0.65;
      }
    </style>
  </defs>
  <path id="insta" class="cls-1" d="M516.391,3481H505.635a6.63,6.63,0,0,0-6.624,6.62v10.76a6.63,6.63,0,0,0,6.624,6.62h10.756a6.63,6.63,0,0,0,6.625-6.62v-10.76A6.63,6.63,0,0,0,516.391,3481Zm4.5,17.38a4.5,4.5,0,0,1-4.5,4.49H505.635a4.5,4.5,0,0,1-4.494-4.49v-10.76a4.494,4.494,0,0,1,4.494-4.49h10.756a4.5,4.5,0,0,1,4.5,4.49v10.76h0Zm-9.873-11.57A6.185,6.185,0,1,0,517.2,3493,6.2,6.2,0,0,0,511.013,3486.81Zm0,10.24a4.055,4.055,0,1,1,4.056-4.05A4.059,4.059,0,0,1,511.013,3497.05Zm6.446-12.04a1.565,1.565,0,1,0,1.1.46A1.576,1.576,0,0,0,517.459,3485.01Z" transform="translate(-499 -3481)"/>
</svg>
