<svg xmlns="http://www.w3.org/2000/svg" width="22" height="20" viewBox="0 0 22 20">
  <metadata><?xpacket begin="﻿" id="W5M0MpCehiHzreSzNTczkc9d"?>
<x:xmpmeta xmlns:x="adobe:ns:meta/" x:xmptk="Adobe XMP Core 5.6-c142 79.160924, 2017/07/13-01:06:39        ">
   <rdf:RDF xmlns:rdf="http://www.w3.org/1999/02/22-rdf-syntax-ns#">
      <rdf:Description rdf:about=""/>
   </rdf:RDF>
</x:xmpmeta>
                                                                                                    
                                                                                                    
                                                                                                    
                                                                                                    
                                                                                                    
                                                                                                    
                                                                                                    
                                                                                                    
                                                                                                    
                                                                                                    
                                                                                                    
                                                                                                    
                                                                                                    
                                                                                                    
                                                                                                    
                                                                                                    
                                                                                                    
                                                                                                    
                                                                                                    
                                                                                                    
                           
<?xpacket end="w"?></metadata>
<defs>
    <style>
      .cls-1 {
        fill: #c60077;
        fill-rule: evenodd;
      }
    </style>
  </defs>
  <path id="izbran" class="cls-1" d="M1125.97,412.964c-0.32-3.455-2.83-5.961-5.96-5.961a5.934,5.934,0,0,0-5.07,2.855,5.737,5.737,0,0,0-4.95-2.856c-3.13,0-5.64,2.507-5.96,5.961a6.1,6.1,0,0,0,.19,2.266,9.689,9.689,0,0,0,3.05,4.968l7.66,6.8,7.8-6.8a9.689,9.689,0,0,0,3.05-4.968A6.094,6.094,0,0,0,1125.97,412.964Zm-1.01,2.075a8.924,8.924,0,0,1-2.79,4.543l-7.23,6.3-7.1-6.3a8.893,8.893,0,0,1-2.8-4.545,5.146,5.146,0,0,1-.17-1.944v-0.042c0.28-3.027,2.43-5.224,5.12-5.224a4.966,4.966,0,0,1,4.56,3.108l0.39,0.9,0.39-.9a5.1,5.1,0,0,1,4.68-3.107c2.69,0,4.84,2.2,5.12,5.263A5.157,5.157,0,0,1,1124.96,415.039Z" transform="translate(-1104 -407)"/>
</svg>
