<svg xmlns="http://www.w3.org/2000/svg" width="37.312" height="40" viewBox="0 0 37.312 40">
  <metadata><?xpacket begin="﻿" id="W5M0MpCehiHzreSzNTczkc9d"?>
<x:xmpmeta xmlns:x="adobe:ns:meta/" x:xmptk="Adobe XMP Core 5.6-c142 79.160924, 2017/07/13-01:06:39        ">
   <rdf:RDF xmlns:rdf="http://www.w3.org/1999/02/22-rdf-syntax-ns#">
      <rdf:Description rdf:about=""/>
   </rdf:RDF>
</x:xmpmeta>
                                                                                                    
                                                                                                    
                                                                                                    
                                                                                                    
                                                                                                    
                                                                                                    
                                                                                                    
                                                                                                    
                                                                                                    
                                                                                                    
                                                                                                    
                                                                                                    
                                                                                                    
                                                                                                    
                                                                                                    
                                                                                                    
                                                                                                    
                                                                                                    
                                                                                                    
                                                                                                    
                           
<?xpacket end="w"?></metadata>
<defs>
    <style>
      .cls-1 {
        fill: #333;
        fill-rule: evenodd;
        opacity: 0.3;
      }
    </style>
  </defs>
  <path id="kompozicii" class="cls-1" d="M859,98.884a0.582,0.582,0,0,0-.076-0.521,0.591,0.591,0,0,0-.466-0.25c-0.04,0-.4-0.011-0.989,0l0.656-2.824a0.585,0.585,0,0,0-.158-0.546,0.591,0.591,0,0,0-.549-0.156l-2.84.651c0.01-.585,0-0.948,0-0.983a0.589,0.589,0,0,0-.775-0.539,27.69,27.69,0,0,0-7.238,3.624,6.369,6.369,0,0,0,.043-0.733c0-3.233-2.475-8.194-2.581-8.4a0.59,0.59,0,0,0-.931-0.164c-0.026.025-.291,0.274-0.7,0.7l-1.545-2.459a0.591,0.591,0,0,0-1,0l-1.544,2.459c-0.406-.418-0.671-0.668-0.7-0.7a0.59,0.59,0,0,0-.931.164c-0.106.21-2.581,5.171-2.581,8.4a6.149,6.149,0,0,0,.043.733,27.694,27.694,0,0,0-7.238-3.624,0.589,0.589,0,0,0-.775.539c0,0.035-.01.4,0,0.983l-2.84-.651a0.591,0.591,0,0,0-.549.156,0.585,0.585,0,0,0-.158.546l0.656,2.825c-0.584-.01-0.95,0-0.989,0a0.591,0.591,0,0,0-.466.25,0.583,0.583,0,0,0-.076.521c0.074,0.222,1.851,5.471,4.15,7.757,0.069,0.069.141,0.137,0.214,0.2-1.017-.3-2.092-0.567-3.231-0.794a0.592,0.592,0,0,0-.589.226,0.583,0.583,0,0,0-.046.626,17.013,17.013,0,0,0,4,4.479,23.1,23.1,0,0,0,2.024,1.487,23.883,23.883,0,0,0-3.717.357,0.585,0.585,0,0,0-.332.974,13.706,13.706,0,0,0,4.237,2.817,17.393,17.393,0,0,0,7.1,1.462,20.328,20.328,0,0,0,3.4-.292l-1.026,7.144a0.587,0.587,0,0,0,.583.668h3.778a0.587,0.587,0,0,0,.583-0.668l-1.026-7.144a20.328,20.328,0,0,0,3.395.292,17.393,17.393,0,0,0,7.1-1.462,13.706,13.706,0,0,0,4.237-2.817,0.585,0.585,0,0,0-.332-0.974,23.883,23.883,0,0,0-3.717-.357,23.1,23.1,0,0,0,2.024-1.487,17,17,0,0,0,4-4.478,0.582,0.582,0,0,0-.045-0.627,0.592,0.592,0,0,0-.589-0.226c-1.139.227-2.214,0.5-3.231,0.794,0.073-.066.145-0.133,0.215-0.2C857.15,104.356,858.927,99.107,859,98.884Zm-4.466-2.434,2.231-.512-0.515,2.218c-0.557.029-1.191,0.076-1.866,0.15C854.458,97.634,854.505,97,854.535,96.45Zm-14.182-8.759,1.213,1.931c-0.373.413-.787,0.891-1.213,1.418-0.425-.527-0.84-1.006-1.213-1.418Zm-2.972,1.776a31.969,31.969,0,0,1,2.947,3.474,0.591,0.591,0,0,0,.822.134,0.584,0.584,0,0,0,.135-0.818c-0.063-.088-0.127-0.175-0.191-0.261a33.328,33.328,0,0,1,2.231-2.529c0.679,1.484,2.106,4.872,2.106,7.139a5.005,5.005,0,0,1-1.407,3.488,0.591,0.591,0,0,0-.3-0.273,4.593,4.593,0,0,0,.179-1.671,9.273,9.273,0,0,0-1.221-3.7,0.59,0.59,0,0,0-.8-0.238,0.583,0.583,0,0,0-.239.793c1.241,2.292,1.42,4.065.538,5.28l-1.327-2.112a0.591,0.591,0,0,0-1,0l-1.544,2.458c-0.406-.418-0.671-0.668-0.7-0.695a0.591,0.591,0,0,0-.927.156,5,5,0,0,1-1.407-3.488C835.275,94.342,836.7,90.952,837.381,89.467Zm5.3,16.882a0.591,0.591,0,0,0-.8-0.238,0.584,0.584,0,0,0-.239.794c1.03,1.9,1.334,3.454.9,4.612a3.733,3.733,0,0,1-2.3,2.037,5.07,5.07,0,0,1-4.969-5.049c0-2.265,1.427-5.655,2.106-7.139a31.939,31.939,0,0,1,2.947,3.474,0.593,0.593,0,0,0,.822.134,0.584,0.584,0,0,0,.135-0.818c-0.063-.088-0.127-0.175-0.191-0.261a33.208,33.208,0,0,1,2.231-2.529c0.679,1.483,2.106,4.872,2.106,7.138a5.039,5.039,0,0,1-2.11,4.095,3.826,3.826,0,0,0,.328-0.675C844.2,110.436,843.877,108.561,842.679,106.349Zm-2.326,9.326c-0.22-.27-0.517-0.614-0.894-1.013a6.18,6.18,0,0,0,1.788,0C840.87,115.061,840.573,115.405,840.353,115.675Zm0.49,4.143h-0.98l0.269-1.875,0.221-.051,0.221,0.051Zm-1.7-18.3,1.213-1.93,1.213,1.931c-0.373.412-.787,0.891-1.213,1.418C839.928,102.412,839.513,101.933,839.14,101.52Zm-12.969-5.07c0.029,0.554.077,1.184,0.15,1.856-0.675-.074-1.309-0.12-1.866-0.15l-0.515-2.218Zm-3.07,2.834a32.25,32.25,0,0,1,4.554.384,0.586,0.586,0,1,0,.19-1.157l-0.32-.05A33.278,33.278,0,0,1,827.3,95.1c1.536,0.572,4.955,1.966,6.565,3.567a5.028,5.028,0,0,1,1.42,4.388,3.82,3.82,0,0,0-.249-0.716c-0.666-1.442-2.23-2.539-4.65-3.26a0.586,0.586,0,1,0-.338,1.123c2.081,0.62,3.4,1.5,3.918,2.626a3.7,3.7,0,0,1-.179,3.058,5.1,5.1,0,0,1-7.1-.076C825.078,104.212,823.677,100.812,823.1,99.284ZM834.464,110.6a31.487,31.487,0,0,0-4-2.143,6.224,6.224,0,0,0,3.765-1.393,8.893,8.893,0,0,0-.131,1.438A6.161,6.161,0,0,0,834.464,110.6Zm-5.515,5.368a14.366,14.366,0,0,1-3-1.773,21.614,21.614,0,0,1,4.358-.09h0.025A29.777,29.777,0,0,0,838.886,117,16.987,16.987,0,0,1,828.949,115.971Zm-1.944-5.45a18.912,18.912,0,0,1-2.96-3A31.284,31.284,0,0,1,835.853,113a23.088,23.088,0,0,1,3.068,2.813A26.269,26.269,0,0,1,827.005,110.521Zm12.138,14.307,0.552-3.839h1.316l0.552,3.839h-2.42ZM854.757,114.2a14.316,14.316,0,0,1-2.948,1.748A16.96,16.96,0,0,1,841.82,117a29.777,29.777,0,0,0,8.552-2.891H850.4A21.57,21.57,0,0,1,854.757,114.2Zm1.9-6.683a18.912,18.912,0,0,1-2.96,3,26.279,26.279,0,0,1-11.918,5.3,23.054,23.054,0,0,1,3.025-2.778A31.232,31.232,0,0,1,856.661,107.516Zm-10.183-.449a6.224,6.224,0,0,0,3.765,1.393,31.487,31.487,0,0,0-4,2.143,6.161,6.161,0,0,0,.367-2.1A8.893,8.893,0,0,0,846.478,107.067Zm7.54-1.254a5.1,5.1,0,0,1-7.1.076,3.7,3.7,0,0,1-.179-3.058c0.519-1.122,1.837-2.006,3.918-2.626a0.586,0.586,0,1,0-.338-1.123c-2.42.721-3.984,1.818-4.65,3.26a3.82,3.82,0,0,0-.249.716,5.027,5.027,0,0,1,1.42-4.387c1.61-1.6,5.029-2.994,6.565-3.567a32.98,32.98,0,0,1-.221,3.358l-0.32.05a0.586,0.586,0,1,0,.19,1.157,32.3,32.3,0,0,1,4.554-.384C857.03,100.811,855.63,104.211,854.018,105.813Z" transform="translate(-821.719 -86)"/>
</svg>
