<svg xmlns="http://www.w3.org/2000/svg" width="26.219" height="40" viewBox="0 0 26.219 40">
  <metadata><?xpacket begin="﻿" id="W5M0MpCehiHzreSzNTczkc9d"?>
<x:xmpmeta xmlns:x="adobe:ns:meta/" x:xmptk="Adobe XMP Core 5.6-c142 79.160924, 2017/07/13-01:06:39        ">
   <rdf:RDF xmlns:rdf="http://www.w3.org/1999/02/22-rdf-syntax-ns#">
      <rdf:Description rdf:about=""/>
   </rdf:RDF>
</x:xmpmeta>
                                                                                                    
                                                                                                    
                                                                                                    
                                                                                                    
                                                                                                    
                                                                                                    
                                                                                                    
                                                                                                    
                                                                                                    
                                                                                                    
                                                                                                    
                                                                                                    
                                                                                                    
                                                                                                    
                                                                                                    
                                                                                                    
                                                                                                    
                                                                                                    
                                                                                                    
                                                                                                    
                           
<?xpacket end="w"?></metadata>
<defs>
    <style>
      .cls-1 {
        fill: #c60077;
        fill-rule: evenodd;
      }
    </style>
  </defs>
  <path id="korziny" class="cls-1" d="M988.234,117.792h-1.372a0.648,0.648,0,0,0,0,1.3h1.372A0.648,0.648,0,0,0,988.234,117.792Zm3.97-8.98a0.643,0.643,0,0,0-.713.567l-0.4,3.456a0.643,0.643,0,1,0,1.277.151l0.4-3.455a0.646,0.646,0,0,0-.564-0.719h0Zm3.492-2.552a0.642,0.642,0,0,0-.481-0.217h-0.164V98.4a12.306,12.306,0,1,0-24.612,0v7.646h-0.164a0.641,0.641,0,0,0-.48.217,0.648,0.648,0,0,0-.158.506l0.941,8.059a1.694,1.694,0,0,0,.8,1.252,2.034,2.034,0,0,0,.29,2.363,2.034,2.034,0,0,0,.087,2.853,1.709,1.709,0,0,0-.286,1.158l0.205,1.755a2.021,2.021,0,0,0,2,1.793h18.141a2.019,2.019,0,0,0,2-1.793l0.205-1.755a1.709,1.709,0,0,0-.285-1.158,2.036,2.036,0,0,0,.087-2.853,2.038,2.038,0,0,0,.29-2.363,1.7,1.7,0,0,0,.8-1.252l0.941-8.059a0.648,0.648,0,0,0-.158-0.506h0ZM971.726,98.4a11.02,11.02,0,1,1,22.039,0v7.646h-4.151a2.7,2.7,0,0,0,.233-0.477,2.69,2.69,0,0,0,2.786-1.316,2.734,2.734,0,0,0-.262-3.089,2.732,2.732,0,0,0,.262-3.088,2.69,2.69,0,0,0-2.786-1.316,2.7,2.7,0,0,0-2.524-1.773,2.66,2.66,0,0,0-1.59.527,2.722,2.722,0,0,0-.2-2.277,2.688,2.688,0,0,0-2.785-1.315,2.684,2.684,0,0,0-5.049,0,2.69,2.69,0,0,0-2.786,1.316,2.733,2.733,0,0,0,.262,3.089,2.717,2.717,0,0,0,.3,3.775c-0.016.038-.033,0.076-0.048,0.115a2.688,2.688,0,0,0-2.785,1.316,2.73,2.73,0,0,0,.261,3.088,2.736,2.736,0,0,0-.6,1.426h-0.576V98.4h0Zm4.112,4.514A2.734,2.734,0,0,0,976.1,106c-0.012.014-.022,0.029-0.034,0.044h-2.461a1.427,1.427,0,0,1,.609-0.883,0.651,0.651,0,0,0,0-1.085,1.428,1.428,0,0,1-.455-1.9,1.4,1.4,0,0,1,1.859-.553,0.639,0.639,0,0,0,.612-0.017,0.648,0.648,0,0,0,.32-0.525,1.4,1.4,0,0,1,2.7-.468,2.727,2.727,0,0,0-.629.981,2.688,2.688,0,0,0-2.786,1.316h0Zm0.647-7.13a1.43,1.43,0,0,1-.455-1.9,1.407,1.407,0,0,1,1.86-.552,0.638,0.638,0,0,0,.611-0.017,0.648,0.648,0,0,0,.321-0.525,1.406,1.406,0,0,1,2.809,0,0.647,0.647,0,0,0,.32.525,0.64,0.64,0,0,0,.612.017,1.405,1.405,0,0,1,1.859.552,1.428,1.428,0,0,1-.455,1.9,0.65,0.65,0,0,0-.116.985,2.684,2.684,0,0,0-1.839,1.306,2.717,2.717,0,0,0-.32,1.807,2.613,2.613,0,0,0-1.33.062,2.7,2.7,0,0,0-2.407-1.5,2.668,2.668,0,0,0-1.7.615,1.4,1.4,0,0,1-.221-0.291,1.43,1.43,0,0,1,.455-1.9A0.651,0.651,0,0,0,976.485,95.781Zm0.922,9.676a1.428,1.428,0,0,1-.455-1.9,1.407,1.407,0,0,1,1.86-.552,0.638,0.638,0,0,0,.611-0.018,0.647,0.647,0,0,0,.321-0.524,1.406,1.406,0,0,1,2.809,0,0.643,0.643,0,0,0,.932.542,1.4,1.4,0,0,1,1.859.552,1.428,1.428,0,0,1-.455,1.9,0.651,0.651,0,0,0,0,1.085,1.428,1.428,0,0,1,.455,1.9,1.4,1.4,0,0,1-1.859.552,0.643,0.643,0,0,0-.932.542,1.406,1.406,0,0,1-2.809,0,0.645,0.645,0,0,0-.321-0.524,0.635,0.635,0,0,0-.321-0.087,0.641,0.641,0,0,0-.29.069,1.406,1.406,0,0,1-1.86-.552,1.428,1.428,0,0,1,.455-1.9A0.651,0.651,0,0,0,977.407,105.457Zm9,0.243a2.729,2.729,0,0,0,.107-2.679,1.977,1.977,0,0,0,.806.171,2.02,2.02,0,0,0,1.745-1.014,0.652,0.652,0,0,0-.234-0.886,0.641,0.641,0,0,0-.879.237,0.731,0.731,0,1,1-.631-1.1,0.648,0.648,0,0,0,0-1.3,2.025,2.025,0,0,0-2.016,2.029,2.048,2.048,0,0,0,.141.745,2.691,2.691,0,0,0-1.737-.316,0.723,0.723,0,0,0,.057-0.074,0.652,0.652,0,0,0-.186-0.9,1.429,1.429,0,0,1-.456-1.9,1.407,1.407,0,0,1,1.86-.552,0.639,0.639,0,0,0,.612-0.017,0.65,0.65,0,0,0,.32-0.525,1.406,1.406,0,0,1,2.809,0,0.648,0.648,0,0,0,.321.525,0.637,0.637,0,0,0,.611.017,1.407,1.407,0,0,1,1.86.552,1.428,1.428,0,0,1-.456,1.9,0.651,0.651,0,0,0,0,1.085,1.428,1.428,0,0,1,.456,1.9,1.407,1.407,0,0,1-1.86.552,0.64,0.64,0,0,0-.611.017,0.65,0.65,0,0,0-.321.526,1.4,1.4,0,0,1-2.318,1h0Zm7.226,8.974a0.4,0.4,0,0,1-.394.354h-2.263a0.648,0.648,0,0,0,0,1.295h1.372a0.735,0.735,0,0,1,0,1.469h-1.372a0.648,0.648,0,0,0,0,1.3h1.372a0.735,0.735,0,0,1,0,1.469h-1.372a0.648,0.648,0,0,0,0,1.3h1.372a0.393,0.393,0,0,1,.3.134,0.4,0.4,0,0,1,.1.313l-0.205,1.755a0.732,0.732,0,0,1-.724.649H973.675a0.731,0.731,0,0,1-.724-0.649l-0.205-1.755a0.4,0.4,0,0,1,.1-0.313,0.391,0.391,0,0,1,.3-0.134h15.093a0.648,0.648,0,0,0,0-1.3H973.141a0.735,0.735,0,0,1,0-1.469h10.976a0.648,0.648,0,0,0,0-1.3H973.141a0.735,0.735,0,0,1,0-1.469h15.093a0.648,0.648,0,0,0,0-1.295H972.25a0.4,0.4,0,0,1-.395-0.354L971,107.339h4.51a2.7,2.7,0,0,0,3.115,3.065,2.683,2.683,0,0,0,5.048,0,2.7,2.7,0,0,0,3.115-3.065h7.7l-0.857,7.335h0Zm-12.487-6.644a2.02,2.02,0,0,0,1.745-1.014,0.652,0.652,0,0,0-.234-0.886,0.641,0.641,0,0,0-.879.237,0.731,0.731,0,1,1-.632-1.1,0.648,0.648,0,0,0,0-1.3,2.031,2.031,0,0,0,0,4.061h0Zm-0.922-9.677a2.019,2.019,0,0,0,1.745-1.014,0.651,0.651,0,0,0-.234-0.885,0.64,0.64,0,0,0-.879.236,0.73,0.73,0,1,1-.632-1.1,0.648,0.648,0,0,0,0-1.3A2.03,2.03,0,0,0,980.226,98.354Z" transform="translate(-969.625 -86)"/>
</svg>
