<svg xmlns="http://www.w3.org/2000/svg" width="22" height="20" viewBox="0 0 22 20">
  <metadata><?xpacket begin="﻿" id="W5M0MpCehiHzreSzNTczkc9d"?>
<x:xmpmeta xmlns:x="adobe:ns:meta/" x:xmptk="Adobe XMP Core 5.6-c142 79.160924, 2017/07/13-01:06:39        ">
   <rdf:RDF xmlns:rdf="http://www.w3.org/1999/02/22-rdf-syntax-ns#">
      <rdf:Description rdf:about=""/>
   </rdf:RDF>
</x:xmpmeta>
                                                                                                    
                                                                                                    
                                                                                                    
                                                                                                    
                                                                                                    
                                                                                                    
                                                                                                    
                                                                                                    
                                                                                                    
                                                                                                    
                                                                                                    
                                                                                                    
                                                                                                    
                                                                                                    
                                                                                                    
                                                                                                    
                                                                                                    
                                                                                                    
                                                                                                    
                                                                                                    
                           
<?xpacket end="w"?></metadata>
<defs>
    <style>
      .cls-1 {
        fill: #c60077;
        fill-rule: evenodd;
        opacity: 0.8;
      }
    </style>
  </defs>
  <path id="lk" class="cls-1" d="M1282.36,46.018l-3.59-1.539a0.757,0.757,0,0,1-.26-0.28l2.4,0a4.287,4.287,0,0,0,1.82-.244,1.073,1.073,0,0,0,.45-1.611,12.02,12.02,0,0,1-2.33-6.044c0-.044-0.14-4.394-4.48-4.429a5.226,5.226,0,0,0-1.76.31,3.2,3.2,0,0,0-.54-0.894,5.786,5.786,0,0,0-7.27,0,3.243,3.243,0,0,0-.77,2.372V35.59a1.462,1.462,0,0,0-.36.955V38a1.43,1.43,0,0,0,.55,1.13,7.437,7.437,0,0,0,1.28,2.632v1.2a0.947,0.947,0,0,1-.51.844l-3.27,1.77a3.279,3.279,0,0,0-1.72,2.881V50h22V48.655A2.934,2.934,0,0,0,1282.36,46.018Zm-4.23,3.254h-15.4V48.458a2.562,2.562,0,0,1,1.34-2.242l3.28-1.769a1.694,1.694,0,0,0,.88-1.482V41.5l-0.08-.1a6.779,6.779,0,0,1-1.25-2.569l-0.04-.144-0.12-.08a0.731,0.731,0,0,1-.34-0.61V36.545a0.713,0.713,0,0,1,.25-0.536l0.12-.108V33.636l-0.01-.048a2.545,2.545,0,0,1,.59-1.826,5.113,5.113,0,0,1,6.16-.007,2.423,2.423,0,0,1,.53,1.042,0.207,0.207,0,0,0,.02.076c0,0.026.01,0.052,0.01,0.077s0.01,0.055.01,0.082a0.117,0.117,0,0,1,.01.057,0.582,0.582,0,0,1,.01.129v0.009a0.433,0.433,0,0,1,.01.11v0.113a0.822,0.822,0,0,1-.01.138V35.9l0.12,0.108a0.713,0.713,0,0,1,.25.536V38a0.725,0.725,0,0,1-.52.691l-0.19.056-0.06.18A7.291,7.291,0,0,1,1272.66,41a3.673,3.673,0,0,1-.3.392l-0.09.1V43a2.408,2.408,0,0,0,.02.271c0,0.019.01,0.037,0.01,0.056,0.02,0.073.04,0.145,0.06,0.215a0.1,0.1,0,0,0,.02.048,0.958,0.958,0,0,0,.1.22c0,0.008.01,0.016,0.01,0.024a1.476,1.476,0,0,0,.18.263l0.09,0.1h0.01a1.712,1.712,0,0,0,.44.311l3.5,1.737a2.529,2.529,0,0,1,1.42,2.283v0.743Zm5.14,0h-4.4V48.529a3.257,3.257,0,0,0-1.83-2.934l-2.52-1.247a0.6,0.6,0,0,0,.02-0.456,0.631,0.631,0,0,0-.6-0.422h-0.81a0.34,0.34,0,0,1-.04-0.093,0.611,0.611,0,0,1-.05-0.127A0.715,0.715,0,0,1,1273,43v-1.23c0.08-.1.17-0.218,0.26-0.346a8.3,8.3,0,0,0,1.09-2.109A1.452,1.452,0,0,0,1275.2,38V36.545a1.421,1.421,0,0,0-.37-0.955V33.656a3.175,3.175,0,0,0-.03-0.777,4.413,4.413,0,0,1,1.58-.284,3.707,3.707,0,0,1,3.74,3.717,12.7,12.7,0,0,0,2.46,6.448,0.356,0.356,0,0,1,.05.3,0.312,0.312,0,0,1-.19.223,3.648,3.648,0,0,1-1.5.187h-2.52a0.669,0.669,0,0,0-.61.966,1.566,1.566,0,0,0,.65.7l3.58,1.535a2.2,2.2,0,0,1,1.23,1.982v0.617Z" transform="translate(-1262 -30)"/>
</svg>
