<svg xmlns="http://www.w3.org/2000/svg" width="26.22" height="24" viewBox="0 0 26.22 24">
  <metadata><?xpacket begin="﻿" id="W5M0MpCehiHzreSzNTczkc9d"?>
<x:xmpmeta xmlns:x="adobe:ns:meta/" x:xmptk="Adobe XMP Core 5.6-c142 79.160924, 2017/07/13-01:06:39        ">
   <rdf:RDF xmlns:rdf="http://www.w3.org/1999/02/22-rdf-syntax-ns#">
      <rdf:Description rdf:about=""/>
   </rdf:RDF>
</x:xmpmeta>
                                                                                                    
                                                                                                    
                                                                                                    
                                                                                                    
                                                                                                    
                                                                                                    
                                                                                                    
                                                                                                    
                                                                                                    
                                                                                                    
                                                                                                    
                                                                                                    
                                                                                                    
                                                                                                    
                                                                                                    
                                                                                                    
                                                                                                    
                                                                                                    
                                                                                                    
                                                                                                    
                           
<?xpacket end="w"?></metadata>
<defs>
    <style>
      .cls-1 {
        fill: #333;
        fill-rule: evenodd;
        opacity: 0.3;
      }
    </style>
  </defs>
  <path id="onas" class="cls-1" d="M1503.82,98.481a2.886,2.886,0,0,0-2.17-.887,3.039,3.039,0,0,0-3.11,2.345,2.024,2.024,0,0,0,.53,1.617,2.871,2.871,0,0,0,2.15.871,3.011,3.011,0,0,0,3.13-2.344A2,2,0,0,0,1503.82,98.481Zm-0.72,1.458a1.811,1.811,0,0,1-1.88,1.245,1.629,1.629,0,0,1-1.21-.456,0.823,0.823,0,0,1-.22-0.645,1.823,1.823,0,0,1,1.86-1.246,1.646,1.646,0,0,1,1.23.47A0.8,0.8,0,0,1,1503.1,99.939Zm0.13,11.8c-0.16-.105-0.53-0.349-0.23-2.042,0.01-.037.04-0.174,0.08-0.386,0.11-.483.31-1.383,0.52-2.387v-0.007a3.286,3.286,0,0,0-.5-2.743,2.984,2.984,0,0,0-2.19-1.107,3.687,3.687,0,0,0-3.22,1.485,0.756,0.756,0,0,0-.03.773,1.048,1.048,0,0,0,.33.339c0.16,0.109.52,0.363,0.18,2.053-0.04.154-.52,2.565-0.58,2.907v0.007a3.282,3.282,0,0,0,.57,2.73,3.141,3.141,0,0,0,2.38,1.054,3.684,3.684,0,0,0,3.02-1.572,0.768,0.768,0,0,0,.01-0.774A1.014,1.014,0,0,0,1503.23,111.741Zm-0.86-5.067c-0.22,1-.41,1.895-0.52,2.377-0.07.327-.08,0.394-0.09,0.421v0.007c-0.32,1.814.01,2.608,0.46,3.052a2.15,2.15,0,0,1-.51.338,2.559,2.559,0,0,1-1.26.3,1.75,1.75,0,0,1-1.31-.584,2.124,2.124,0,0,1-.31-1.74c0.07-.369.55-2.78,0.57-2.876v-0.006c0.37-1.806.07-2.607-.38-3.064a2.484,2.484,0,0,1,.52-0.324,2.592,2.592,0,0,1,1.27-.269,1.736,1.736,0,0,1,1.29.618A2.156,2.156,0,0,1,1502.37,106.674Zm8.95,6.356a11.02,11.02,0,0,0-1.18-15.581,14.138,14.138,0,0,0-18.51,0,11.065,11.065,0,0,0,0,16.8,13.79,13.79,0,0,0,9.26,3.451,14.251,14.251,0,0,0,6.24-1.426l4.57,1.69a0.632,0.632,0,0,0,.22.04,0.626,0.626,0,0,0,.61-0.793Zm-4.01,1.979a0.638,0.638,0,0,0-.51.031,12.95,12.95,0,0,1-5.91,1.412c-6.54,0-11.86-4.757-11.86-10.6s5.32-10.605,11.86-10.605,11.85,4.757,11.85,10.605a9.851,9.851,0,0,1-2.59,6.619,0.6,0.6,0,0,0-.14.582l0.96,3.314Z" transform="translate(-1487.78 -94)"/>
</svg>
