<svg xmlns="http://www.w3.org/2000/svg" width="20" height="20" viewBox="0 0 20 20">
  <metadata><?xpacket begin="﻿" id="W5M0MpCehiHzreSzNTczkc9d"?>
<x:xmpmeta xmlns:x="adobe:ns:meta/" x:xmptk="Adobe XMP Core 5.6-c142 79.160924, 2017/07/13-01:06:39        ">
   <rdf:RDF xmlns:rdf="http://www.w3.org/1999/02/22-rdf-syntax-ns#">
      <rdf:Description rdf:about=""/>
   </rdf:RDF>
</x:xmpmeta>
                                                                                                    
                                                                                                    
                                                                                                    
                                                                                                    
                                                                                                    
                                                                                                    
                                                                                                    
                                                                                                    
                                                                                                    
                                                                                                    
                                                                                                    
                                                                                                    
                                                                                                    
                                                                                                    
                                                                                                    
                                                                                                    
                                                                                                    
                                                                                                    
                                                                                                    
                                                                                                    
                           
<?xpacket end="w"?></metadata>
<defs>
    <style>
      .cls-1 {
        fill: #c60077;
        fill-rule: evenodd;
        opacity: 0.8;
      }
    </style>
  </defs>
  <path id="phone" class="cls-1" d="M936.986,46.46a1.534,1.534,0,0,0-.761-1.137l-4.934-2.841a1.547,1.547,0,0,0-1.864.246l-0.972.972a0.711,0.711,0,0,1-.951.053,28.543,28.543,0,0,1-4.259-4.259,0.714,0.714,0,0,1,.053-0.952l0.972-.972a1.548,1.548,0,0,0,.247-1.864l-2.841-4.934a1.546,1.546,0,0,0-2.433-.321l-1.464,1.464c-1.022,1.022-1.038,2.892-.046,5.265a23.246,23.246,0,0,0,5.013,7.072,23.256,23.256,0,0,0,7.072,5.014,8.242,8.242,0,0,0,3.1.732,2.954,2.954,0,0,0,2.168-.779l1.464-1.465a1.532,1.532,0,0,0,.439-1.3h0Zm-6.018-3.416,4.934,2.841a0.9,0.9,0,0,1,.274,1.311l-6.557-3.742,0.266-.266a0.9,0.9,0,0,1,1.083-.143h0ZM920.454,30.656a0.889,0.889,0,0,1,.66.442l2.841,4.934a0.9,0.9,0,0,1-.143,1.082l-0.245.245L919.8,30.824a0.885,0.885,0,0,1,.53-0.176,0.864,0.864,0,0,1,.12.008h0Zm14.17,18.107c-0.812.812-2.472,0.778-4.556-.093A22.611,22.611,0,0,1,923.2,43.8a22.593,22.593,0,0,1-4.873-6.864c-0.872-2.083-.906-3.744-0.094-4.556l1.087-1.087,3.769,6.545-0.253.253a1.36,1.36,0,0,0-.1,1.816,29.118,29.118,0,0,0,4.357,4.357,1.359,1.359,0,0,0,1.816-.1l0.231-.231,6.566,3.748-1.086,1.086h0Z" transform="translate(-917 -30)"/>
</svg>
