<svg xmlns="http://www.w3.org/2000/svg" width="27" height="20" viewBox="0 0 27 20">
  <metadata><?xpacket begin="﻿" id="W5M0MpCehiHzreSzNTczkc9d"?>
<x:xmpmeta xmlns:x="adobe:ns:meta/" x:xmptk="Adobe XMP Core 5.6-c142 79.160924, 2017/07/13-01:06:39        ">
   <rdf:RDF xmlns:rdf="http://www.w3.org/1999/02/22-rdf-syntax-ns#">
      <rdf:Description rdf:about=""/>
   </rdf:RDF>
</x:xmpmeta>
                                                                                                    
                                                                                                    
                                                                                                    
                                                                                                    
                                                                                                    
                                                                                                    
                                                                                                    
                                                                                                    
                                                                                                    
                                                                                                    
                                                                                                    
                                                                                                    
                                                                                                    
                                                                                                    
                                                                                                    
                                                                                                    
                                                                                                    
                                                                                                    
                                                                                                    
                                                                                                    
                           
<?xpacket end="w"?></metadata>
<defs>
    <style>
      .cls-1 {
        fill: #fff;
        fill-rule: evenodd;
      }
    </style>
  </defs>
  <path id="photo" class="cls-1" d="M1066.56,2668h19.89a3.5,3.5,0,0,0,3.55-3.45v-10.23a3.511,3.511,0,0,0-3.54-3.46h0.03v-0.53a0.484,0.484,0,0,0-.48-0.54h-1.91a0.546,0.546,0,0,0-.55.54v0.53h-0.7a3.533,3.533,0,0,0-3.5-2.85h-5.7a3.523,3.523,0,0,0-3.49,2.85h-3.6a3.507,3.507,0,0,0-3.55,3.46v10.23A3.5,3.5,0,0,0,1066.56,2668Zm-2.38-13.68a2.352,2.352,0,0,1,2.38-2.31h4.72l0.09-1.15a2.352,2.352,0,0,1,2.28-1.7h5.7a2.364,2.364,0,0,1,2.29,1.7l0.09,1.15h4.72a2.352,2.352,0,0,1,2.38,2.31v10.23a2.351,2.351,0,0,1-2.38,2.3h-19.89a2.351,2.351,0,0,1-2.38-2.3v-10.23Zm8.79-2.57h6.99a0.429,0.429,0,0,0,.44-0.43,0.437,0.437,0,0,0-.44-0.44h-6.99a0.446,0.446,0,0,0-.45.44A0.438,0.438,0,0,0,1072.97,2651.75Zm3.53,14.1a6.5,6.5,0,1,0-6.62-6.49A6.565,6.565,0,0,0,1076.5,2665.85Zm0-11.9a5.411,5.411,0,1,1-5.51,5.41A5.464,5.464,0,0,1,1076.5,2653.95Zm-3.49,5.77a3.953,3.953,0,0,1,3.99-3.91,0.36,0.36,0,1,0,0-.72,4.68,4.68,0,0,0-4.73,4.63,0.367,0.367,0,0,0,.37.36A0.361,0.361,0,0,0,1073.01,2659.72Z" transform="translate(-1063 -2648)"/>
</svg>
