<svg xmlns="http://www.w3.org/2000/svg" width="30.22" height="24" viewBox="0 0 30.22 24">
  <metadata><?xpacket begin="﻿" id="W5M0MpCehiHzreSzNTczkc9d"?>
<x:xmpmeta xmlns:x="adobe:ns:meta/" x:xmptk="Adobe XMP Core 5.6-c142 79.160924, 2017/07/13-01:06:39        ">
   <rdf:RDF xmlns:rdf="http://www.w3.org/1999/02/22-rdf-syntax-ns#">
      <rdf:Description rdf:about=""/>
   </rdf:RDF>
</x:xmpmeta>
                                                                                                    
                                                                                                    
                                                                                                    
                                                                                                    
                                                                                                    
                                                                                                    
                                                                                                    
                                                                                                    
                                                                                                    
                                                                                                    
                                                                                                    
                                                                                                    
                                                                                                    
                                                                                                    
                                                                                                    
                                                                                                    
                                                                                                    
                                                                                                    
                                                                                                    
                                                                                                    
                           
<?xpacket end="w"?></metadata>
<defs>
    <style>
      .cls-1 {
        fill: #333;
        fill-rule: evenodd;
        opacity: 0.3;
      }
    </style>
  </defs>
  <path id="photostudia" class="cls-1" d="M1386.2,97.314h-5.06l-2.15-3.063a0.588,0.588,0,0,0-.48-0.251h-9.8a0.592,0.592,0,0,0-.49.251l-2.14,3.063h-1.66V95.572a0.583,0.583,0,0,0-.59-0.58h-2.82a0.589,0.589,0,0,0-.59.58v1.811a2.472,2.472,0,0,0-1.91,2.4v14.807a2.486,2.486,0,0,0,2.5,2.468h9.84a11.126,11.126,0,0,0,8.97,0h6.38a2.5,2.5,0,0,0,2.51-2.468V99.782A2.494,2.494,0,0,0,1386.2,97.314Zm-17.18-2.154h9.18l1.45,2.082a11.122,11.122,0,0,0-8.8.072h-3.34Zm-7.42.993h1.64v1.161h-1.64V96.153Zm-0.59,19.742a1.313,1.313,0,0,1-1.32-1.307V99.782a1.313,1.313,0,0,1,1.32-1.306h7.82a10.707,10.707,0,0,0,0,17.42h-7.82Zm14.32,0.943a9.655,9.655,0,1,1,9.81-9.653A9.741,9.741,0,0,1,1375.33,116.838Zm12.2-2.25h0a1.322,1.322,0,0,1-1.33,1.307h-4.36a10.707,10.707,0,0,0,0-17.42h4.36a1.322,1.322,0,0,1,1.33,1.306v14.807Zm-24.55-.908h-1.04v-2.666a0.589,0.589,0,0,0-.59-0.58,0.583,0.583,0,0,0-.59.58v3.246a0.583,0.583,0,0,0,.59.581h1.63A0.581,0.581,0,1,0,1362.98,113.68Zm-1.63-4.861a0.583,0.583,0,0,0-.59.58v0.028a0.583,0.583,0,0,0,.59.58,0.589,0.589,0,0,0,.59-0.58V109.4A0.589,0.589,0,0,0,1361.35,108.819ZM1375.33,98.7a8.49,8.49,0,1,0,8.63,8.489A8.567,8.567,0,0,0,1375.33,98.7Zm0,15.817a7.329,7.329,0,1,1,7.45-7.328A7.395,7.395,0,0,1,1375.33,114.513Zm5.24-11.164a6.515,6.515,0,0,0-3.27-2.294,0.593,0.593,0,0,0-.74.379,0.574,0.574,0,0,0,.38.728,5.251,5.251,0,0,1,3.74,5.023,0.588,0.588,0,0,0,.59.58,0.582,0.582,0,0,0,.59-0.58A6.271,6.271,0,0,0,1380.57,103.349Zm-5.17-2.59h-0.07a0.581,0.581,0,1,0,0,1.161h0.06A0.581,0.581,0,1,0,1375.4,100.759Zm-11.83-1.448a1.742,1.742,0,1,0,1.77,1.742A1.762,1.762,0,0,0,1363.57,99.311Zm0,2.322a0.581,0.581,0,1,1,0-1.161A0.581,0.581,0,1,1,1363.57,101.633Z" transform="translate(-1358.5 -94)"/>
</svg>
