<svg xmlns="http://www.w3.org/2000/svg" width="30" height="30" viewBox="0 0 30 30">
  <metadata><?xpacket begin="﻿" id="W5M0MpCehiHzreSzNTczkc9d"?>
<x:xmpmeta xmlns:x="adobe:ns:meta/" x:xmptk="Adobe XMP Core 5.6-c142 79.160924, 2017/07/13-01:06:39        ">
   <rdf:RDF xmlns:rdf="http://www.w3.org/1999/02/22-rdf-syntax-ns#">
      <rdf:Description rdf:about=""/>
   </rdf:RDF>
</x:xmpmeta>
                                                                                                    
                                                                                                    
                                                                                                    
                                                                                                    
                                                                                                    
                                                                                                    
                                                                                                    
                                                                                                    
                                                                                                    
                                                                                                    
                                                                                                    
                                                                                                    
                                                                                                    
                                                                                                    
                                                                                                    
                                                                                                    
                                                                                                    
                                                                                                    
                                                                                                    
                                                                                                    
                           
<?xpacket end="w"?></metadata>
<defs>
    <style>
      .cls-1 {
        fill: #333;
        fill-rule: evenodd;
        opacity: 0.7;
      }
    </style>
  </defs>
  <path id="prazdniku" class="cls-1" d="M507.779,357.858a0.434,0.434,0,0,0-.437.431V365.1a1.042,1.042,0,0,1-1.049,1.033H483.707a1.042,1.042,0,0,1-1.049-1.033v-6.812a0.438,0.438,0,0,0-.875,0V365.1a1.912,1.912,0,0,0,1.924,1.9h22.586a1.912,1.912,0,0,0,1.924-1.9v-6.815A0.435,0.435,0,0,0,507.779,357.858Zm1.066-13.35H506.3a5.145,5.145,0,0,0,1.732-2.338,3.508,3.508,0,0,0-.749-3.4,4.3,4.3,0,0,0-3.837-1.784c-1.8.164-3.687,1.5-5.619,3.956-0.316.4-.631,0.833-0.94,1.283a1.681,1.681,0,0,0-1.115-.42h-1.538a1.681,1.681,0,0,0-1.115.42c-0.309-.45-0.624-0.88-0.94-1.283-1.932-2.461-3.823-3.793-5.619-3.956a4.3,4.3,0,0,0-3.837,1.784,3.508,3.508,0,0,0-.749,3.4,5.145,5.145,0,0,0,1.732,2.338h-2.549A1.147,1.147,0,0,0,480,345.645v3.144a1.148,1.148,0,0,0,1.154,1.137h0.629v5.348a0.438,0.438,0,0,0,.875,0v-5.348h9.191v8.048a0.84,0.84,0,0,0,.019.176,0.8,0.8,0,0,0,.462.562,0.826,0.826,0,0,0,.344.075,0.821,0.821,0,0,0,.49-0.16c0.016-.012.032-0.024,0.048-0.038l0.844-.717,1.836,0.011,0.909,0.74h0a0.826,0.826,0,0,0,.876.108,0.8,0.8,0,0,0,.474-0.734v-8.071h9.191v5.346a0.438,0.438,0,0,0,.875,0v-5.346h0.628A1.148,1.148,0,0,0,510,348.789v-3.144A1.147,1.147,0,0,0,508.845,344.508Zm-17,4.555H481.154a0.277,0.277,0,0,1-.279-0.274v-3.144a0.278,0.278,0,0,1,.279-0.275h10.695v3.693Zm-1.534-4.555c-0.644-.24-1.934-0.744-2.6-1.065-1.856-.892-2.675-1.708-2.822-2.173a0.605,0.605,0,0,1,.22-0.62,1.262,1.262,0,0,1,1.162-.662c0.416,0.038,1.587.386,3.48,2.8,0.479,0.611.895,1.217,1.221,1.723h-0.661Zm2.241-1.189v1.189h-0.55a24.635,24.635,0,0,0-1.559-2.25c-1.926-2.453-3.288-3.055-4.091-3.128a2.183,2.183,0,0,0-1.927.982,1.446,1.446,0,0,0-.372,1.415c0.363,1.146,2.207,2.178,3.274,2.691,0.214,0.1.426,0.2,0.632,0.29h-2.785a5.282,5.282,0,0,1-2.372-2.595,2.7,2.7,0,0,1,.6-2.607,3.454,3.454,0,0,1,3.072-1.462c1.545,0.14,3.23,1.359,5.008,3.624,0.373,0.475.744,0.99,1.107,1.534A1.413,1.413,0,0,0,492.556,343.319Zm0.875,0.135a0.8,0.8,0,0,1,.8-0.788h1.538a0.8,0.8,0,0,1,.8.788v1.054h-3.138v-1.054Zm0.625,14.418,0.893-.758,0.943,0.769Zm3.219,0.018-1.8-1.467c-0.019-.016-0.039-0.031-0.059-0.045l-0.02-.012-0.042-.026-0.024-.012-0.041-.02-0.026-.01a0.333,0.333,0,0,0-.04-0.016l-0.028-.008a0.3,0.3,0,0,0-.04-0.012l-0.029-.007-0.04-.008-0.031,0-0.039,0-0.032,0h-0.038l-0.038,0h-0.033l-0.039.005-0.032,0-0.04.009-0.03.006-0.041.013-0.028.009-0.042.017-0.025.011-0.042.022-0.022.011-0.045.029-0.018.012a0.626,0.626,0,0,0-.059.046l-1.685,1.431h0v-12.5h4.551v12.52h0Zm0.719-13.382h-0.55v-1.189a1.473,1.473,0,0,0-.035-0.317c0.362-.544.734-1.059,1.107-1.534,1.778-2.265,3.462-3.484,5.008-3.624a3.454,3.454,0,0,1,3.072,1.462,2.7,2.7,0,0,1,.6,2.607,5.286,5.286,0,0,1-2.372,2.595h-2.785c0.206-.09.418-0.187,0.632-0.29,1.067-.513,2.911-1.545,3.274-2.691a1.448,1.448,0,0,0-.372-1.415,2.184,2.184,0,0,0-1.927-.982c-0.8.073-2.165,0.675-4.091,3.128A24.5,24.5,0,0,0,497.994,344.508Zm1.682,0h-0.652c0.326-.506.742-1.112,1.221-1.723,1.893-2.411,3.064-2.759,3.479-2.8a1.262,1.262,0,0,1,1.163.662,0.605,0.605,0,0,1,.22.62c-0.147.465-.966,1.281-2.822,2.173C501.606,343.77,500.3,344.276,499.676,344.508Zm9.449,4.281a0.278,0.278,0,0,1-.28.274H498.151V345.37h10.694a0.278,0.278,0,0,1,.28.275v3.144h0Z" transform="translate(-480 -337)"/>
</svg>
