<svg xmlns="http://www.w3.org/2000/svg" width="29.44" height="40" viewBox="0 0 29.44 40">
  <metadata><?xpacket begin="﻿" id="W5M0MpCehiHzreSzNTczkc9d"?>
<x:xmpmeta xmlns:x="adobe:ns:meta/" x:xmptk="Adobe XMP Core 5.6-c142 79.160924, 2017/07/13-01:06:39        ">
   <rdf:RDF xmlns:rdf="http://www.w3.org/1999/02/22-rdf-syntax-ns#">
      <rdf:Description rdf:about=""/>
   </rdf:RDF>
</x:xmpmeta>
                                                                                                    
                                                                                                    
                                                                                                    
                                                                                                    
                                                                                                    
                                                                                                    
                                                                                                    
                                                                                                    
                                                                                                    
                                                                                                    
                                                                                                    
                                                                                                    
                                                                                                    
                                                                                                    
                                                                                                    
                                                                                                    
                                                                                                    
                                                                                                    
                                                                                                    
                                                                                                    
                           
<?xpacket end="w"?></metadata>
<defs>
    <style>
      .cls-1 {
        fill: #333;
        fill-rule: evenodd;
        opacity: 0.3;
      }
    </style>
  </defs>
  <path id="svadebnoe" class="cls-1" d="M1134.07,100.007a0.852,0.852,0,0,0-.78-0.515h-0.21a3.139,3.139,0,0,0-.9-3.831v0a1.352,1.352,0,0,1-.51-1.246,3.093,3.093,0,0,0-2.24-3.42,1.324,1.324,0,0,1-.94-0.956,3.042,3.042,0,0,0-3.36-2.288,1.281,1.281,0,0,1-1.21-.509s-0.01-.007-0.01-0.009a3,3,0,0,0-3.96-.8,1.277,1.277,0,0,1-1.32,0,3.007,3.007,0,0,0-3.97.8,1.283,1.283,0,0,1-1.21.517l-0.01,0a3.043,3.043,0,0,0-3.36,2.29,1.315,1.315,0,0,1-.93.953v0a3.1,3.1,0,0,0-2.25,3.424,1.335,1.335,0,0,1-.51,1.246,3.134,3.134,0,0,0-.89,3.839,0.879,0.879,0,0,0-.68.507,0.9,0.9,0,0,0,.13.943l11.88,14.026v8.355a2.616,2.616,0,1,0,5.23,0v-8.355l11.88-14.026A0.9,0.9,0,0,0,1134.07,100.007Zm-26.63-2.941a3.124,3.124,0,0,0,1.18-2.9,1.32,1.32,0,0,1,.96-1.47v0a3.072,3.072,0,0,0,2.18-2.22,1.3,1.3,0,0,1,1.43-.985l0.02,0a3,3,0,0,0,2.83-1.2,1.3,1.3,0,0,1,1.71-.344,2.99,2.99,0,0,0,3.08,0,1.291,1.291,0,0,1,1.7.338v0.009a3.011,3.011,0,0,0,2.84,1.2,1.314,1.314,0,0,1,1.45.986,3.061,3.061,0,0,0,2.17,2.219,1.329,1.329,0,0,1,.97,1.476,3.121,3.121,0,0,0,1.18,2.893v0a1.351,1.351,0,0,1,.34,1.734l-0.4.687h-6.21a10.661,10.661,0,0,0,.73-3.88,0.874,0.874,0,0,0-.86-0.882,9.968,9.968,0,0,0-6.2,2.14,10.418,10.418,0,0,0-1.9,1.936,8.458,8.458,0,0,0-6.62-3.222,0.876,0.876,0,0,0-.87.882,8.872,8.872,0,0,0,.54,3.026h-2.19l-0.4-.687A1.346,1.346,0,0,1,1107.44,97.066Zm4.13,2.426a7.156,7.156,0,0,1-.62-2.08,6.679,6.679,0,0,1,3.2,1.362,6.755,6.755,0,0,1,.78.718h-3.36Zm11.4,0h-4.65a8.942,8.942,0,0,1,1.27-1.222,8.3,8.3,0,0,1,4.23-1.727A8.875,8.875,0,0,1,1122.97,99.492Zm-15.47,1.764h18.22l-5.69,12.51h-1.94Zm11.06,17.624h1.77v1.585h-1.77V118.88Zm0-1.764V115.53h1.77v1.586h-1.77Zm0.89,7.12a0.9,0.9,0,0,1-.89-0.9v-1.1h1.77v1.1A0.89,0.89,0,0,1,1119.45,124.236Zm3.81-13.365,4.37-9.615h3.77Z" transform="translate(-1104.72 -86)"/>
</svg>
