<svg xmlns="http://www.w3.org/2000/svg" width="36.969" height="22.03" viewBox="0 0 36.969 22.03">
  <metadata><?xpacket begin="﻿" id="W5M0MpCehiHzreSzNTczkc9d"?>
<x:xmpmeta xmlns:x="adobe:ns:meta/" x:xmptk="Adobe XMP Core 5.6-c142 79.160924, 2017/07/13-01:06:39        ">
   <rdf:RDF xmlns:rdf="http://www.w3.org/1999/02/22-rdf-syntax-ns#">
      <rdf:Description rdf:about=""/>
   </rdf:RDF>
</x:xmpmeta>
                                                                                                    
                                                                                                    
                                                                                                    
                                                                                                    
                                                                                                    
                                                                                                    
                                                                                                    
                                                                                                    
                                                                                                    
                                                                                                    
                                                                                                    
                                                                                                    
                                                                                                    
                                                                                                    
                                                                                                    
                                                                                                    
                                                                                                    
                                                                                                    
                                                                                                    
                                                                                                    
                           
<?xpacket end="w"?></metadata>
<defs>
    <style>
      .cls-1 {
        fill: #ffe1f3;
        fill-rule: evenodd;
        opacity: 0.65;
      }
    </style>
  </defs>
  <path id="vk" class="cls-1" d="M463.844,3496.01c1.227,1.26,2.522,2.45,3.623,3.83a11.529,11.529,0,0,1,1.3,1.97c0.5,1.02.047,2.14-.82,2.2h-5.39a4.067,4.067,0,0,1-3.432-1.47c-0.746-.8-1.437-1.65-2.155-2.48a5.376,5.376,0,0,0-.97-0.9,1.1,1.1,0,0,0-1.8.45,6.284,6.284,0,0,0-.567,2.65c-0.058,1.34-.442,1.69-1.717,1.75a13.233,13.233,0,0,1-7.712-1.75,17.338,17.338,0,0,1-5.19-5.11,70.087,70.087,0,0,1-6.83-12.81c-0.431-1.01-.116-1.55.943-1.57q2.639-.06,5.277,0a1.559,1.559,0,0,1,1.464,1.15,35.009,35.009,0,0,0,3.576,6.97,5.918,5.918,0,0,0,1.351,1.57,0.809,0.809,0,0,0,1.4-.44,4.975,4.975,0,0,0,.311-1.46,22.986,22.986,0,0,0-.087-5.13,2.093,2.093,0,0,0-1.729-1.95c-0.516-.1-0.439-0.31-0.189-0.61a1.9,1.9,0,0,1,1.653-.87h6.091c0.959,0.2,1.172.65,1.3,1.67l0.006,7.12a2.122,2.122,0,0,0,.859,1.82,1.189,1.189,0,0,0,1.217-.63,22.161,22.161,0,0,0,3.429-5.55c0.413-.87.768-1.78,1.111-2.69a1.316,1.316,0,0,1,1.378-1l5.862,0.01a2.968,2.968,0,0,1,.518.03c0.988,0.18,1.259.63,0.954,1.64a15.792,15.792,0,0,1-2.331,4.26c-0.978,1.42-2.023,2.79-2.993,4.23-0.891,1.3-.82,1.96.287,3.1h0Z" transform="translate(-432 -3482)"/>
</svg>
