<?xml version="1.0" encoding="UTF-8"?>
<!DOCTYPE svg PUBLIC "-//W3C//DTD SVG 1.1//EN" "http://www.w3.org/Graphics/SVG/1.1/DTD/svg11.dtd">
<!-- Creator: CorelDRAW X8 -->
<svg xmlns="http://www.w3.org/2000/svg" xml:space="preserve" width="113.678mm" height="29.5066mm" version="1.1" style="shape-rendering:geometricPrecision; text-rendering:geometricPrecision; image-rendering:optimizeQuality; fill-rule:evenodd; clip-rule:evenodd"
viewBox="0 0 9263 2404"
 xmlns:xlink="http://www.w3.org/1999/xlink">
 <defs>
  <style type="text/css">
   <![CDATA[
    .fil0 {fill:#CB5499}
   ]]>
  </style>
 </defs>
 <g id="Layer_x0020_1">
  <metadata id="CorelCorpID_0Corel-Layer"/>
  <g id="_2331980648704">
   <path class="fil0" d="M1504 1066c45,-32 136,-153 296,-139 88,8 111,83 134,136 28,64 85,97 113,44 32,-60 -117,-90 -22,-155 42,-28 118,14 139,86 28,101 -60,161 -122,166 -83,7 -129,-47 -253,-107 -78,-37 -196,-2 -277,5 -24,2 -30,-19 -8,-36z"/>
   <path class="fil0" d="M944 728c13,-62 81,-188 0,-327 -44,-77 -122,-65 -180,-64 -69,2 -123,-35 -88,-83 41,-54 131,68 149,-46 8,-50 -62,-100 -136,-89 -103,17 -121,122 -99,181 30,78 98,96 205,184 67,55 85,176 113,252 8,22 30,14 36,-8z"/>
   <path class="fil0" d="M1207 934c109,57 227,-81 309,-163 37,-37 182,-34 56,182 -44,75 -246,208 -317,135 -52,-52 -39,-99 -201,-123 -118,-17 -93,-206 -61,-299 76,-214 241,-193 204,-78 -49,153 -97,277 10,346z"/>
   <path class="fil0" d="M1143 1043c60,36 106,112 74,132 -40,26 -81,60 -100,56l-4 0 0 0c-40,10 -117,-48 -124,-76 -11,-35 1,-71 9,-115 9,-49 93,-28 145,3z"/>
   <path class="fil0" d="M599 1995c121,-29 -98,112 -19,154 79,42 94,-214 133,-94 39,120 -107,319 -228,257 -119,-68 12,-293 114,-317z"/>
   <path class="fil0" d="M1823 1218c230,114 109,414 -163,373 -272,-42 -52,-277 -57,-179 -5,98 161,144 245,50 85,-94 6,-233 -179,-225 -186,9 -457,141 -627,432 -170,292 -155,553 -46,717 22,34 -173,42 -197,-174 -44,-402 169,-685 331,-822 220,-174 462,-286 693,-172z"/>
   <path class="fil0" d="M1321 871c-121,29 98,-112 19,-154 -79,-42 -94,213 -133,94 -39,-120 107,-320 228,-257 119,67 -13,292 -114,317z"/>
   <path class="fil0" d="M765 932c-239,50 -437,195 -400,223 9,7 20,14 32,20 43,23 105,37 155,-10 52,-49 115,-119 227,-156 24,212 -22,525 -178,772 -207,327 93,78 208,-245 113,-318 105,-614 -33,-915 -97,-169 -300,-386 -595,-253 -296,134 -188,521 32,502 220,-20 45,-214 21,-119 -24,95 -91,104 -145,-11 -54,-114 98,-256 283,-239 185,16 283,175 366,350 11,22 20,50 27,81z"/>
   <path class="fil0" d="M1523 683c-23,101 43,-28 114,62 70,89 219,192 332,138 113,-55 15,-67 -6,-82 -20,-15 -114,-96 -63,-100 50,-5 94,40 59,-31 -34,-72 -126,-143 -311,-126 -79,8 114,-65 184,-150 43,-52 78,-136 10,-111 -68,26 -28,-45 -24,-132 3,-87 0,-132 -27,-146 -29,-16 -100,12 -132,27 -119,54 -148,122 -155,50 -8,-73 -68,-4 -96,58 -44,100 -24,305 -52,232 -67,-174 -171,-225 -251,-224 -79,2 -19,21 -1,68 18,47 -95,-1 -118,-13 -22,-11 -77,-94 -76,32 2,125 160,213 272,236 111,23 40,105 101,56 82,-67 281,-31 240,156z"/>
  </g>
  <path class="fil0" d="M3481 1276c0,-59 12,-76 50,-80l14 -1c16,-2 17,-12 17,-17 0,-12 -6,-18 -31,-18l-392 0c-8,0 -23,0 -23,18 0,20 17,20 33,22l16 1c13,1 32,11 32,49 0,207 -59,431 -111,482 -37,35 -73,-8 -73,48 0,23 1,16 6,114 1,40 -5,95 25,95 18,0 20,-21 22,-33 13,-87 18,-122 35,-145 31,-41 85,-25 135,-25l109 0c56,0 117,-12 146,25 14,18 19,49 26,143 1,17 1,35 19,35 5,0 16,-1 19,-35l7 -83c3,-33 9,-90 9,-101 0,-18 0,-16 -36,-19 -27,-2 -54,-9 -54,-105l0 -370zm-1032 1054l-169 0 0 -245 25 0 0 223 127 0 0 -223 24 0 0 223 17 0 0 73 -24 0 0 -51zm156 0l0 -245 134 0 0 22 -109 0 0 86 106 0 0 23 -106 0 0 92 109 0 0 22 -134 0zm268 0l0 -245 24 0 0 108 127 0 0 -108 25 0 0 245 -25 0 0 -115 -127 0 0 115 -24 0zm350 0l0 -223 -56 0 0 -22 136 0 0 22 -56 0 0 223 -24 0zm197 0l0 -245 65 0c16,0 30,1 39,3 10,2 19,5 26,10 7,4 13,10 18,16 5,6 8,13 11,20 3,8 4,16 4,24 0,12 -3,23 -7,33 -5,9 -12,18 -21,24 -5,4 -11,7 -17,10 -6,2 -13,3 -20,4 -8,2 -17,2 -27,2l-46 0 0 99 -25 0zm25 -121l42 0c13,0 23,-1 30,-2 8,-2 14,-4 20,-8 7,-4 12,-10 15,-17 4,-7 6,-15 6,-24 0,-10 -3,-20 -8,-28 -5,-8 -13,-14 -22,-17 -9,-4 -22,-6 -38,-6l-5 0 -4 0 -4 0 -32 0 0 102zm572 85l2 8 2 -8 86 -209 38 0 0 245 -25 0 0 -218 -92 218 -21 0 -92 -218 0 218 -25 0 0 -245 38 0 89 209zm384 -213c24,0 46,5 67,17 20,11 36,26 48,46 11,19 17,40 17,63 0,23 -5,44 -17,64 -12,19 -27,35 -47,46 -20,11 -42,17 -65,17 -23,0 -45,-5 -65,-17 -20,-11 -36,-26 -47,-46 -12,-19 -18,-40 -18,-63 0,-22 6,-43 18,-63 11,-20 27,-35 46,-47 20,-11 41,-17 63,-17zm2 23c-18,0 -36,5 -52,14 -16,10 -28,23 -38,38 -9,16 -14,34 -14,52 0,19 5,36 14,51 10,16 22,29 39,38 16,9 33,14 52,14 14,0 28,-3 40,-8 13,-5 24,-13 34,-22 10,-10 17,-21 22,-34 6,-12 8,-26 8,-40 0,-18 -4,-35 -14,-51 -9,-16 -22,-29 -38,-38 -17,-9 -34,-14 -53,-14zm239 204l16 0 86 -223 27 0 84 223 18 0 0 73 -25 0 0 -51 -182 0 0 51 -24 0 0 -73zm187 0l-72 -195 -72 195 144 0zm163 22l0 -245 25 0 0 108 127 0 0 -108 25 0 0 245 -25 0 0 -115 -127 0 0 115 -25 0zm433 -249c24,0 46,5 67,17 20,11 36,26 48,46 12,19 18,40 18,63 0,23 -6,44 -18,64 -12,19 -27,35 -47,46 -20,11 -42,17 -65,17 -23,0 -45,-5 -65,-17 -20,-11 -36,-26 -47,-46 -12,-19 -18,-40 -18,-63 0,-22 6,-43 18,-63 11,-20 27,-35 46,-47 20,-11 41,-17 63,-17zm2 23c-18,0 -35,5 -52,14 -16,10 -28,23 -38,38 -9,16 -14,34 -14,52 0,19 5,36 14,51 10,16 23,29 39,38 16,9 34,14 52,14 14,0 28,-3 41,-8 12,-5 23,-13 33,-22 10,-10 17,-21 23,-34 5,-12 8,-26 8,-40 0,-18 -5,-35 -15,-51 -9,-16 -22,-29 -38,-38 -17,-9 -34,-14 -53,-14zm300 -50l21 0c5,10 15,15 30,15 14,0 23,-5 29,-15l21 0c-2,7 -5,13 -9,17 -9,11 -23,17 -41,17 -11,0 -20,-2 -27,-5 -7,-3 -12,-7 -16,-12 -3,-4 -6,-9 -8,-17zm146 276l-24 0 0 -209 -2 5 -136 204 -24 0 0 -245 24 0 0 209 2 -5 136 -204 24 0 0 245zm452 -264l0 21c17,1 32,5 47,11 14,7 26,15 37,26 10,11 18,23 24,37 5,15 8,30 8,46 0,22 -5,42 -15,60 -10,18 -24,33 -41,43 -18,11 -38,17 -60,19l0 22 -25 0 0 -22c-17,-2 -32,-6 -46,-13 -14,-6 -26,-15 -36,-26 -10,-10 -18,-23 -23,-37 -6,-14 -8,-29 -8,-45 0,-16 2,-32 8,-45 5,-14 12,-27 22,-37 10,-11 22,-20 36,-26 14,-7 30,-11 47,-13l0 -21 25 0zm-25 242l0 -200c-9,1 -18,3 -27,7 -20,9 -35,21 -46,37 -11,16 -16,35 -16,56 0,17 4,33 10,46 7,14 17,25 31,34 13,9 29,16 48,20zm25 -200l0 200c14,-1 26,-5 38,-11 11,-6 21,-13 29,-22 8,-9 14,-19 18,-30 4,-12 7,-24 7,-38 0,-13 -3,-26 -8,-39 -4,-12 -11,-22 -19,-30 -9,-9 -21,-17 -36,-23 -10,-4 -20,-7 -29,-7zm329 3l-79 219 -26 0 92 -245 28 0 94 245 -30 0 -79 -219zm344 -30c24,0 46,5 66,17 21,11 37,26 48,46 12,19 18,40 18,63 0,23 -6,44 -17,64 -12,19 -28,35 -48,46 -20,11 -41,17 -64,17 -23,0 -45,-5 -65,-17 -20,-11 -36,-26 -48,-46 -11,-19 -17,-40 -17,-63 0,-22 6,-43 17,-63 12,-20 28,-35 47,-47 20,-11 40,-17 63,-17zm2 23c-19,0 -36,5 -52,14 -16,10 -29,23 -38,38 -10,16 -14,34 -14,52 0,19 4,36 14,51 9,16 22,29 38,38 17,9 34,14 53,14 14,0 28,-3 40,-8 13,-5 24,-13 34,-22 9,-10 17,-21 22,-34 6,-12 8,-26 8,-40 0,-18 -5,-35 -14,-51 -10,-16 -22,-29 -39,-38 -16,-9 -33,-14 -52,-14zm259 226l0 -245 65 0c16,0 29,1 39,3 10,2 19,5 26,10 7,4 13,10 18,16 5,6 8,13 11,20 2,8 4,16 4,24 0,12 -3,23 -7,33 -5,9 -12,18 -21,24 -5,4 -11,7 -17,10 -6,2 -13,3 -21,4 -7,2 -16,2 -26,2l-46 0 0 99 -25 0zm25 -121l42 0c13,0 23,-1 30,-2 7,-2 14,-4 20,-8 7,-4 12,-10 15,-17 4,-7 6,-15 6,-24 0,-10 -3,-20 -8,-28 -5,-8 -13,-14 -22,-17 -9,-4 -22,-6 -39,-6l-4 0 -5 0 -3 0 -32 0 0 102zm448 121l-25 0 0 -209 -2 5 -135 204 -25 0 0 -245 25 0 0 209 1 -5 136 -204 25 0 0 245zm369 -182l-27 0c-7,-10 -14,-17 -20,-21 -9,-7 -19,-13 -31,-17 -11,-4 -23,-5 -34,-5 -18,0 -35,4 -51,14 -16,9 -29,22 -38,37 -9,16 -14,33 -14,51 0,18 5,36 14,52 10,16 22,28 38,38 16,9 33,14 52,14 16,0 31,-4 46,-12 8,-4 15,-8 20,-12 5,-5 11,-11 19,-21l27 0c-5,9 -10,16 -13,21 -4,4 -9,9 -15,14 -25,22 -53,33 -85,33 -23,0 -45,-5 -64,-17 -20,-11 -35,-26 -47,-46 -11,-19 -17,-41 -17,-64 0,-23 6,-44 17,-63 12,-20 27,-35 46,-46 20,-11 41,-17 65,-17 25,0 48,7 70,20 12,9 23,18 31,29 4,5 8,11 11,18zm164 182l0 -223 -56 0 0 -22 136 0 0 22 -56 0 0 223 -24 0zm384 0l-25 0 0 -209 -1 5 -136 204 -25 0 0 -245 25 0 0 209 2 -5 135 -204 25 0 0 245zm165 -127l109 -118 30 0 -107 117 114 128 -31 0 -115 -127zm-1 -118l0 245 -24 0 0 -245 24 0zm450 245l-24 0 0 -209 -2 5 -135 204 -25 0 0 -245 25 0 0 209 1 -5 136 -204 24 0 0 245zm-462 -2251c317,73 256,479 -92,507 -347,28 -145,-326 -122,-204 22,123 240,131 317,-9 76,-140 -62,-289 -287,-225 -226,65 -523,307 -647,716 -123,409 -28,726 154,897 37,35 -201,102 -294,-157 -172,-482 8,-894 167,-1110 220,-279 486,-488 804,-415zm-6090 -31c-373,-32 -483,418 -251,523 232,105 166,-189 88,-107 -78,82 -150,52 -139,-93 11,-146 243,-203 420,-81 176,121 186,337 170,559 -2,37 -12,79 -28,126 -275,-94 -571,-59 -549,-9 22,54 83,136 179,112 85,-21 195,-58 339,-23 -100,223 -314,506 -604,652 -242,122 48,132 347,-129 294,-256 453,-558 484,-939 -1,-225 -83,-558 -456,-591zm686 1622c0,75 -26,82 -54,82l-156 0c-15,0 -36,-2 -43,-10 -7,-7 -2,-17 0,-23 37,-84 77,-199 93,-441 3,-43 4,-85 81,-85l14 0c39,0 65,-10 65,80l0 397zm684 -310c19,0 20,-13 20,-23 0,-112 -86,-204 -209,-204 -162,0 -263,150 -263,342 0,152 71,338 253,338 64,0 138,-24 194,-103 8,-10 22,-33 22,-44 0,-9 -7,-11 -12,-11 -10,0 -20,14 -30,26 -25,31 -66,60 -131,60 -153,0 -206,-165 -206,-275 0,-94 8,-106 37,-106l325 0zm-319 -34c-10,0 -21,0 -21,-20 0,-18 8,-35 23,-58 36,-53 81,-77 130,-77 71,0 112,50 112,90 0,62 -65,65 -126,65l-118 0zm601 -150c-5,-15 -12,-16 -18,-16 -29,0 -30,5 -66,5 -21,0 -43,-5 -64,-5 -17,0 -31,2 -31,18 0,18 16,18 27,18 63,2 55,52 54,80l-22 395c-4,71 -29,78 -58,79 -22,1 -26,4 -26,17 0,12 2,19 30,19 22,0 46,-5 69,-5 27,0 53,5 81,5 11,0 25,0 25,-19 0,-2 0,-15 -15,-16l-13 -1c-18,-1 -35,-3 -43,-21 -10,-20 -12,-58 -8,-143l14 -321c0,-8 1,-12 2,-12 2,0 4,3 7,10l143 421c15,45 24,70 34,70 10,0 20,-24 36,-70l152 -422c2,-9 4,-10 6,-10 1,0 1,1 1,4l0 20 14 394c3,71 -22,79 -54,80 -22,1 -26,4 -26,17 0,13 3,19 30,19 30,0 61,-5 93,-5 31,0 62,5 92,5 28,0 30,-6 30,-19 0,-13 -4,-16 -26,-17 -41,-1 -53,-16 -55,-80l-14 -394c-1,-46 6,-80 55,-80 26,0 26,-10 26,-18 0,-7 -2,-18 -31,-18 -26,0 -52,5 -77,5 -15,0 -29,-5 -48,-5 -19,0 -17,3 -20,11l-154 425c-2,8 -3,11 -5,11 -1,0 -2,-3 -5,-11l-142 -420zm1018 45c1,-18 -3,-25 -12,-35 -26,-28 -90,-53 -151,-53 -144,0 -296,133 -296,365 0,164 95,315 265,315 105,0 167,-68 188,-98 12,-18 12,-25 12,-28 0,-8 -6,-10 -10,-10 -6,0 -11,5 -16,10 -23,24 -58,67 -132,67 -107,0 -217,-97 -217,-287 0,-204 112,-296 189,-296 70,0 100,62 124,111 8,19 17,43 34,43 13,0 16,-18 17,-34l5 -70zm234 55c0,-78 26,-79 58,-80 10,0 23,-1 23,-18 0,-11 -6,-18 -30,-18 -31,0 -61,5 -93,5 -31,0 -61,-5 -92,-5 -13,0 -31,0 -31,18 0,18 16,18 27,18 40,1 54,16 54,80l0 394c0,65 -15,77 -50,80l-15 1c-6,0 -16,1 -16,16 0,12 6,19 30,19 31,0 62,-5 93,-5 32,0 63,5 94,5 11,0 30,-1 30,-19 0,-17 -15,-17 -27,-17 -39,-1 -55,-16 -55,-80l0 -187c0,-11 3,-12 13,-12 74,0 90,15 150,155l39 91c23,54 34,69 75,69 15,0 29,-1 43,-1 16,0 32,1 49,1 8,0 21,0 21,-16 0,-14 -13,-16 -26,-20 -29,-8 -47,-6 -89,-95l-49 -103c-15,-31 -51,-90 -136,-96l0 -5c60,-18 77,-78 100,-153 9,-30 20,-78 44,-78 11,0 18,8 23,15 15,18 28,27 48,27 32,0 55,-25 55,-62 0,-47 -34,-67 -66,-67 -81,0 -111,83 -139,158 -32,82 -44,146 -110,146l-22 0c-21,0 -23,0 -23,-12l0 -149zm565 0c0,-80 29,-78 54,-80l15 -1c7,-2 12,-9 12,-17 0,-18 -17,-18 -31,-18 -30,0 -61,5 -91,5 -32,0 -62,-5 -93,-5 -14,0 -31,0 -31,18 0,8 5,15 12,17l15 1c29,2 54,0 54,80l0 394c0,80 -25,77 -54,80l-15 1c-7,1 -12,9 -12,16 0,19 17,19 31,19 31,0 61,-5 93,-5 30,0 61,5 91,5 14,0 31,0 31,-19 0,-7 -5,-15 -12,-16l-15 -1c-19,-1 -54,-1 -54,-68l0 -21 265 -316c8,-9 13,-13 15,-13 3,0 3,8 3,19l0 319c0,80 -29,77 -54,80l-15 1c-8,1 -13,9 -13,16 0,19 18,19 32,19 30,0 61,-5 91,-5 31,0 61,5 92,5 14,0 32,0 32,-19 0,-7 -5,-15 -13,-16l-15 -1c-29,-3 -54,0 -54,-80l0 -394c0,-80 25,-78 54,-80l15 -1c8,-2 13,-9 13,-17 0,-18 -18,-18 -32,-18 -31,0 -61,5 -92,5 -30,0 -61,-5 -91,-5 -14,0 -32,0 -32,18 0,8 5,15 13,17l15 1c25,2 54,4 54,74l0 3 -266 317c-7,9 -12,12 -15,12 -2,0 -2,-7 -2,-19l0 -307zm673 0c0,-80 29,-78 54,-80l15 -1c7,-2 12,-9 12,-17 0,-18 -17,-18 -31,-18 -30,0 -61,5 -91,5 -32,0 -62,-5 -93,-5 -14,0 -31,0 -31,18 0,8 5,15 12,17l15 1c29,2 54,0 54,80l0 394c0,80 -25,77 -54,80l-15 1c-7,1 -12,9 -12,16 0,19 17,19 31,19 31,0 61,-5 93,-5 30,0 61,5 91,5 14,0 31,0 31,-19 0,-7 -5,-15 -12,-16l-15 -1c-19,-1 -54,-1 -54,-68l0 -21 265 -316c7,-9 12,-13 15,-13 3,0 3,8 3,19l0 319c0,80 -29,77 -54,80l-15 1c-8,1 -13,9 -13,16 0,19 18,19 31,19 30,0 62,-5 92,-5 31,0 61,5 92,5 14,0 32,0 32,-19 0,-7 -5,-15 -13,-16l-15 -1c-29,-3 -54,0 -54,-80l0 -394c0,-80 25,-78 54,-80l15 -1c8,-2 13,-9 13,-17 0,-18 -18,-18 -32,-18 -31,0 -61,5 -92,5 -30,0 -62,-5 -92,-5 -13,0 -31,0 -31,18 0,8 5,15 13,17l15 1c25,2 54,4 54,74l0 3 -266 317c-7,9 -12,12 -15,12 -2,0 -2,-7 -2,-19l0 -307zm333 -352c3,-7 5,-15 5,-23 0,-13 -12,-12 -14,-12 -11,0 -19,20 -30,45 -17,37 -59,108 -124,108 -53,0 -76,-48 -76,-100 0,-15 5,-49 -10,-49 -23,0 -67,64 -67,101 0,55 63,103 130,103 52,0 119,-28 186,-173zm1418 336c1,-35 0,-127 -128,-127 -72,0 -133,27 -186,79 -17,18 -62,65 -62,119 0,19 11,20 17,20 53,0 71,-36 78,-59 16,-51 36,-124 130,-124 53,0 67,23 65,120l-2 149c-1,14 -3,20 -29,33 -189,93 -250,151 -250,234 0,68 40,109 93,109 37,0 90,-18 163,-96 9,-9 11,-11 14,-11 4,0 5,6 6,9 8,32 18,98 75,98 19,0 48,-10 85,-56 13,-15 20,-25 20,-32 0,-9 -5,-13 -10,-13 -7,0 -12,8 -17,14 -8,10 -24,20 -37,20 -37,0 -33,-65 -32,-112l7 -374zm-91 339c-1,95 -76,142 -118,142 -15,0 -62,-6 -62,-76 0,-89 114,-147 151,-163 18,-7 22,-7 24,-7 9,0 6,8 6,17l-1 87zm660 -323c0,-59 13,-77 51,-80l13 -1c16,-2 18,-12 18,-17 0,-12 -7,-18 -31,-18l-392 0c-9,0 -24,0 -24,18 0,20 18,20 34,22l15 1c14,1 33,11 33,49 0,207 -59,431 -112,482 -36,35 -73,-8 -73,48 0,23 2,16 7,114 2,40 -5,95 25,95 17,0 20,-21 21,-33 14,-87 19,-122 35,-145 31,-41 85,-25 135,-25l109 0c56,0 117,-12 146,25 14,18 19,49 27,143 1,17 1,35 18,35 5,0 16,-1 19,-35l8 -83c3,-33 8,-90 8,-101 0,-18 0,-16 -36,-19 -26,-2 -54,-9 -54,-105l0 -370zm-83 394c0,75 -27,82 -54,82l-156 0c-15,0 -36,-2 -43,-10 -7,-7 -3,-17 0,-23 36,-84 77,-199 93,-441 2,-43 3,-85 81,-85l14 0c38,0 65,-10 65,80l0 397z"/>
 </g>
</svg>
