<?xml version="1.0" encoding="UTF-8"?>
<!DOCTYPE svg PUBLIC "-//W3C//DTD SVG 1.1//EN" "http://www.w3.org/Graphics/SVG/1.1/DTD/svg11.dtd">
<!-- Creator: CorelDRAW X8 -->
<svg xmlns="http://www.w3.org/2000/svg" xml:space="preserve" width="100.023mm" height="63.0565mm" version="1.1" style="shape-rendering:geometricPrecision; text-rendering:geometricPrecision; image-rendering:optimizeQuality; fill-rule:evenodd; clip-rule:evenodd"
viewBox="0 0 10002 6306"
 xmlns:xlink="http://www.w3.org/1999/xlink">
 <defs>
  <style type="text/css">
   <![CDATA[
    .fil0 {fill:#CB5499}
   ]]>
  </style>
 </defs>
 <g id="Layer_x0020_1">
  <metadata id="CorelCorpID_0Corel-Layer"/>
  <path class="fil0" d="M3655 1639c-54,244 105,-67 274,149 169,215 526,462 798,331 272,-132 35,-161 -14,-197 -49,-36 -273,-229 -153,-240 121,-11 226,98 144,-75 -83,-172 -303,-342 -748,-300 -189,18 274,-157 442,-360 104,-126 187,-329 24,-267 -164,61 -68,-108 -59,-318 10,-209 2,-315 -64,-351 -70,-38 -240,30 -317,65 -285,131 -355,294 -372,120 -18,-174 -162,-9 -229,140 -107,240 -58,733 -126,556 -160,-417 -411,-538 -602,-536 -191,3 -46,49 -3,162 44,113 -228,-2 -283,-30 -54,-28 -185,-227 -182,75 4,302 384,512 652,567 268,56 97,253 242,134 197,-160 676,-75 576,375zm-1818 598c-575,120 -1049,468 -960,536 21,17 47,33 77,48 103,56 250,88 370,-24 126,-119 276,-286 545,-374 59,507 -51,1260 -425,1852 -497,786 222,188 498,-589 271,-763 253,-1473 -80,-2195 -232,-407 -719,-927 -1429,-607 -709,321 -450,1251 78,1204 528,-47 109,-513 51,-285 -58,228 -219,249 -348,-26 -129,-275 234,-615 678,-575 444,39 681,421 880,840 26,55 48,120 65,195zm1335 -147c-292,70 235,-269 45,-370 -190,-101 -225,513 -319,226 -95,-288 255,-767 547,-617 286,162 -30,703 -273,761zm1203 833c554,274 263,995 -390,895 -653,-100 -125,-664 -137,-429 -12,235 386,347 589,121 202,-225 13,-559 -432,-540 -444,20 -1097,337 -1504,1038 -408,700 -371,1325 -110,1721 54,81 -416,100 -473,-419 -106,-964 406,-1645 794,-1973 528,-418 1109,-687 1663,-414zm-2938 1866c292,-70 -235,269 -45,370 190,101 225,-513 319,-226 95,288 -256,767 -547,617 -286,-162 30,-703 273,-761zm1308 -2284c142,84 254,267 177,317 -96,61 -195,142 -242,133l-7 0 0 0c-98,24 -281,-115 -299,-182 -27,-83 2,-171 21,-277 22,-117 224,-66 350,9zm152 -264c262,139 544,-193 742,-391 89,-89 438,-81 135,437 -106,180 -590,500 -762,325 -123,-124 -93,-237 -482,-295 -284,-41 -224,-495 -145,-719 181,-512 577,-462 489,-185 -117,365 -234,663 23,828zm-632 -493c33,-148 195,-453 2,-786 -107,-183 -294,-155 -432,-152 -168,4 -297,-85 -212,-200 98,-131 314,162 358,-111 19,-119 -150,-241 -328,-213 -247,40 -289,293 -236,434 71,186 235,232 491,441 161,132 204,424 272,607 20,53 72,32 85,-20zm1346 812c108,-79 326,-369 711,-335 211,18 265,199 321,326 67,153 203,233 271,107 77,-144 -281,-216 -52,-372 100,-67 282,34 332,207 69,241 -142,386 -293,398 -198,15 -309,-114 -607,-257 -188,-90 -470,-4 -665,12 -56,4 -71,-45 -18,-86zm407 2484c0,-61 13,-79 52,-83l14 -2c17,-1 18,-11 18,-16 0,-13 -6,-20 -32,-20l-405 0c-9,0 -25,0 -25,20 0,20 19,20 35,22l16 1c14,1 34,11 34,50 0,215 -61,447 -116,500 -37,36 -75,-9 -75,49 0,24 1,17 7,118 1,41 -6,98 26,98 18,0 20,-22 22,-33 14,-91 19,-127 36,-150 32,-43 88,-26 140,-26l112 0c58,0 122,-13 152,26 14,18 19,50 27,147 1,18 1,36 19,36 5,0 17,-1 20,-36l7 -85c3,-35 10,-94 10,-105 0,-18 0,-17 -38,-20 -27,-2 -56,-9 -56,-108l0 -383zm5505 -1239c329,76 265,495 -94,525 -360,29 -151,-337 -127,-211 23,126 249,135 328,-10 79,-145 -64,-299 -297,-232 -234,66 -541,317 -669,740 -128,424 -29,751 159,929 39,36 -208,105 -304,-163 -178,-499 8,-925 173,-1149 228,-288 503,-504 831,-429zm-6301 -32c-386,-34 -500,433 -260,541 240,108 172,-196 91,-111 -80,85 -155,55 -144,-96 11,-151 251,-209 434,-84 183,125 193,349 177,579 -3,38 -13,82 -29,130 -285,-97 -592,-61 -569,-9 24,56 86,141 186,116 88,-22 201,-61 350,-24 -103,230 -325,523 -625,675 -250,126 51,136 360,-134 303,-265 469,-577 500,-971 -1,-233 -86,-578 -471,-612zm710 1678c0,78 -28,86 -56,86l-162 0c-15,0 -37,-3 -44,-11 -8,-8 -2,-18 0,-24 38,-87 79,-206 96,-456 3,-45 4,-88 84,-88l14 0c40,0 68,-10 68,83l0 410zm708 -321c19,0 20,-13 20,-23 0,-117 -89,-211 -216,-211 -168,0 -273,155 -273,353 0,158 74,350 263,350 66,0 142,-25 200,-106 8,-11 22,-34 22,-46 0,-9 -6,-11 -11,-11 -11,0 -21,14 -31,27 -26,32 -69,62 -136,62 -158,0 -214,-171 -214,-285 0,-97 9,-110 39,-110l337 0zm-330 -35c-11,0 -22,0 -22,-20 0,-19 7,-37 23,-60 37,-56 84,-80 134,-80 74,0 117,52 117,93 0,65 -67,67 -131,67l-121 0zm621 -155c-5,-16 -12,-17 -18,-17 -30,0 -31,5 -69,5 -22,0 -44,-5 -66,-5 -18,0 -32,3 -32,20 0,18 17,18 28,18 65,2 57,54 56,83l-23 408c-4,74 -30,81 -60,82 -23,1 -27,4 -27,18 0,12 2,20 31,20 23,0 48,-6 71,-6 29,0 56,6 84,6 12,0 26,0 26,-20 0,-2 0,-15 -15,-17l-13 -1c-20,-1 -37,-3 -46,-22 -10,-21 -11,-60 -7,-148l14 -332c0,-8 1,-12 2,-12 2,0 4,3 7,11l149 434c15,47 24,73 35,73 10,0 20,-25 37,-73l157 -436c2,-9 4,-10 6,-10 2,0 2,1 2,4l0 21 14 407c2,74 -24,82 -56,83 -23,1 -27,4 -27,18 0,13 3,20 31,20 31,0 63,-6 96,-6 32,0 64,6 96,6 28,0 31,-7 31,-20 0,-14 -4,-17 -28,-18 -42,-1 -54,-17 -57,-83l-14 -407c-1,-48 7,-83 57,-83 27,0 27,-11 27,-18 0,-8 -2,-20 -32,-20 -27,0 -54,5 -80,5 -16,0 -30,-5 -49,-5 -20,0 -19,4 -21,12l-159 440c-3,8 -4,11 -6,11 -1,0 -2,-3 -5,-11l-147 -435zm1053 47c2,-19 -2,-26 -11,-37 -28,-28 -94,-54 -157,-54 -149,0 -307,137 -307,378 0,169 99,325 275,325 108,0 173,-70 194,-101 13,-18 13,-26 13,-29 0,-9 -7,-10 -11,-10 -6,0 -11,5 -16,10 -24,25 -60,69 -136,69 -112,0 -225,-100 -225,-297 0,-210 116,-306 195,-306 72,0 104,64 128,115 9,19 18,44 36,44 13,0 16,-18 17,-35l5 -72zm242 57c0,-81 28,-82 61,-83 11,0 23,-2 23,-18 0,-12 -6,-20 -31,-20 -32,0 -63,5 -95,5 -33,0 -64,-5 -96,-5 -13,0 -32,0 -32,20 0,18 16,18 28,18 41,1 56,16 56,83l0 407c0,67 -16,80 -52,83l-16 1c-6,0 -16,2 -16,17 0,12 6,20 31,20 32,0 64,-6 97,-6 32,0 64,6 97,6 11,0 31,-2 31,-20 0,-18 -16,-18 -29,-18 -40,-1 -57,-17 -57,-83l0 -193c0,-11 4,-13 15,-13 76,0 93,16 155,161l40 94c23,56 35,72 78,72 15,0 29,-2 44,-2 16,0 33,2 50,2 9,0 22,0 22,-17 0,-15 -13,-17 -27,-21 -30,-8 -48,-6 -92,-98l-50 -107c-16,-32 -53,-93 -141,-99l0 -5c62,-18 80,-81 103,-158 9,-31 21,-82 45,-82 12,0 20,9 25,16 15,19 28,28 49,28 34,0 57,-26 57,-64 0,-48 -35,-69 -69,-69 -82,0 -113,85 -143,163 -33,85 -45,151 -114,151l-22 0c-22,0 -25,0 -25,-12l0 -154zm585 0c0,-83 30,-81 56,-83l16 -2c7,-1 12,-9 12,-16 0,-20 -18,-20 -32,-20 -31,0 -63,5 -94,5 -33,0 -64,-5 -96,-5 -14,0 -33,0 -33,20 0,7 6,15 13,16l16 2c30,2 56,0 56,83l0 407c0,83 -26,80 -56,83l-16 1c-7,2 -13,9 -13,17 0,20 19,20 33,20 32,0 63,-6 96,-6 31,0 63,6 94,6 14,0 32,0 32,-20 0,-8 -5,-15 -12,-17l-16 -1c-19,-1 -56,-1 -56,-70l0 -22 275 -327c7,-9 13,-13 15,-13 3,0 3,7 3,19l0 330c0,83 -30,80 -56,83l-15 1c-8,2 -13,9 -13,17 0,20 18,20 32,20 31,0 63,-6 95,-6 32,0 63,6 95,6 15,0 33,0 33,-20 0,-8 -5,-15 -13,-17l-16 -1c-30,-3 -55,0 -55,-83l0 -407c0,-83 25,-81 55,-83l16 -2c8,-1 13,-9 13,-16 0,-20 -18,-20 -33,-20 -32,0 -63,5 -95,5 -32,0 -64,-5 -95,-5 -14,0 -32,0 -32,20 0,7 5,15 13,16l15 2c26,2 56,4 56,76l0 4 -275 327c-7,9 -12,13 -15,13 -3,0 -3,-7 -3,-19l0 -318zm697 0c0,-83 29,-81 55,-83l16 -2c8,-1 13,-9 13,-16 0,-20 -18,-20 -33,-20 -31,0 -63,5 -94,5 -32,0 -63,-5 -96,-5 -14,0 -32,0 -32,20 0,7 5,15 13,16l15 2c30,2 56,0 56,83l0 407c0,83 -26,80 -56,83l-15 1c-8,2 -13,9 -13,17 0,20 18,20 32,20 33,0 64,-6 96,-6 31,0 63,6 94,6 15,0 33,0 33,-20 0,-8 -5,-15 -13,-17l-16 -1c-19,-1 -55,-1 -55,-70l0 -22 274 -327c8,-9 13,-13 16,-13 2,0 2,7 2,19l0 330c0,83 -30,80 -55,83l-16 1c-8,2 -13,9 -13,17 0,20 18,20 32,20 31,0 64,-6 95,-6 32,0 63,6 96,6 14,0 32,0 32,-20 0,-8 -5,-15 -13,-17l-15 -1c-30,-3 -56,0 -56,-83l0 -407c0,-83 26,-81 56,-83l15 -2c8,-1 13,-9 13,-16 0,-20 -18,-20 -32,-20 -33,0 -64,5 -96,5 -31,0 -64,-5 -95,-5 -14,0 -32,0 -32,20 0,7 5,15 13,16l16 2c25,2 55,4 55,76l0 4 -274 327c-8,9 -13,13 -16,13 -2,0 -2,-7 -2,-19l0 -318zm344 -364c4,-8 5,-16 5,-25 0,-13 -12,-11 -14,-11 -12,0 -19,20 -31,46 -17,38 -61,111 -128,111 -55,0 -79,-49 -79,-103 0,-16 5,-51 -11,-51 -23,0 -68,66 -68,105 0,57 64,106 134,106 53,0 123,-28 192,-178zm1468 347c1,-37 0,-131 -133,-131 -74,0 -137,27 -192,81 -18,19 -64,68 -64,123 0,20 11,21 18,21 54,0 72,-37 80,-61 17,-53 38,-128 135,-128 54,0 69,23 67,124l-3 154c0,15 -2,21 -29,34 -196,97 -259,157 -259,242 0,71 41,113 97,113 37,0 93,-18 168,-99 9,-9 12,-11 14,-11 4,0 6,6 7,9 8,33 18,101 77,101 20,0 50,-10 88,-57 13,-16 21,-26 21,-34 0,-9 -5,-13 -10,-13 -8,0 -13,8 -18,14 -8,11 -25,21 -38,21 -39,0 -35,-67 -34,-116l8 -387zm-94 350c-2,99 -79,148 -122,148 -15,0 -65,-7 -65,-79 0,-92 118,-151 157,-168 18,-8 22,-8 25,-8 9,0 6,9 6,18l-1 89zm683 -333c0,-61 13,-80 52,-83l14 -2c17,-1 18,-11 18,-16 0,-13 -6,-20 -32,-20l-405 0c-9,0 -25,0 -25,20 0,20 18,20 35,22l16 1c14,1 33,11 33,50 0,215 -60,447 -115,500 -37,36 -75,-9 -75,49 0,24 2,17 6,118 2,41 -5,98 26,98 19,0 21,-22 22,-33 14,-91 20,-127 37,-150 32,-44 88,-26 139,-26l113 0c58,0 121,-13 151,26 14,18 20,50 28,147 1,18 1,36 19,36 5,0 16,-1 19,-36l8 -85c3,-35 9,-94 9,-105 0,-18 0,-17 -37,-20 -27,-2 -56,-9 -56,-108l0 -383zm-87 407c0,78 -27,86 -55,86l-162 0c-16,0 -37,-3 -44,-11 -7,-8 -3,-18 0,-24 37,-87 79,-206 96,-456 3,-45 4,-88 84,-88l14 0c40,0 67,-10 67,83l0 410zm-8562 790l-216 0 0 -314 31 0 0 285 163 0 0 -285 32 0 0 286 21 0 0 93 -31 0 0 -65zm200 0l0 -314 172 0 0 28 -140 0 0 110 135 0 0 29 -135 0 0 118 140 0 0 29 -172 0zm343 0l0 -314 32 0 0 138 162 0 0 -138 32 0 0 314 -32 0 0 -148 -162 0 0 148 -32 0zm448 0l0 -286 -71 0 0 -28 174 0 0 28 -71 0 0 286 -32 0zm254 0l0 -314 82 0c21,0 38,1 51,3 12,3 23,7 33,14 9,5 16,12 23,20 6,8 11,16 14,26 3,10 5,20 5,31 0,15 -3,29 -9,41 -7,13 -15,23 -27,32 -7,4 -14,8 -22,12 -7,2 -16,5 -26,6 -9,1 -21,2 -34,2l-59 0 0 127 -31 0zm31 -156l54 0c16,0 29,0 39,-2 9,-2 17,-5 25,-10 9,-5 15,-13 20,-22 5,-9 7,-20 7,-31 0,-13 -4,-25 -10,-35 -7,-10 -17,-18 -29,-23 -11,-5 -28,-7 -49,-7l-6 0 -5 0 -5 0 -41 0 0 130zm732 109l3 11 3 -11 110 -267 49 0 0 314 -32 0 0 -279 -118 279 -27 0 -118 -279 0 279 -32 0 0 -314 49 0 113 267zm493 -273c31,0 59,7 85,22 26,14 47,34 62,59 15,25 22,52 22,81 0,30 -7,57 -22,82 -15,25 -35,45 -61,59 -25,15 -53,22 -82,22 -30,0 -58,-7 -83,-22 -26,-14 -46,-34 -61,-59 -15,-24 -22,-51 -22,-80 0,-29 7,-56 22,-81 15,-26 35,-46 59,-60 25,-15 52,-23 81,-23zm3 30c-24,0 -46,6 -67,18 -20,13 -37,29 -49,49 -12,21 -18,43 -18,67 0,23 6,45 18,65 12,20 29,36 50,48 20,12 43,18 67,18 18,0 35,-3 52,-10 16,-7 30,-16 42,-29 13,-12 22,-26 29,-42 7,-17 11,-34 11,-52 0,-23 -7,-45 -19,-65 -12,-21 -28,-37 -49,-49 -21,-12 -43,-18 -67,-18zm305 262l21 0 110 -286 35 0 108 286 22 0 0 93 -32 0 0 -65 -233 0 0 65 -31 0 0 -93zm240 0l-92 -250 -92 250 184 0zm210 28l0 -314 31 0 0 138 163 0 0 -138 32 0 0 314 -32 0 0 -148 -163 0 0 148 -31 0zm554 -320c31,0 59,7 85,22 26,14 47,34 62,59 15,25 22,52 22,81 0,30 -7,57 -22,82 -15,25 -35,45 -61,59 -25,15 -53,22 -82,22 -30,0 -58,-7 -83,-22 -26,-14 -46,-34 -61,-59 -15,-24 -23,-51 -23,-80 0,-29 8,-56 23,-81 15,-26 35,-46 59,-60 25,-15 52,-23 81,-23zm3 30c-24,0 -46,6 -67,18 -20,13 -37,29 -49,49 -12,21 -18,43 -18,67 0,23 6,45 18,65 12,20 29,36 50,48 20,12 43,18 67,18 18,0 35,-3 52,-10 16,-7 30,-16 42,-29 13,-12 22,-26 29,-42 7,-17 11,-34 11,-52 0,-23 -7,-45 -19,-65 -12,-21 -28,-37 -49,-49 -21,-12 -43,-18 -67,-18zm383 -64l27 0c7,13 20,20 38,20 18,0 31,-7 38,-20l27 0c-3,9 -7,16 -11,22 -13,14 -31,22 -54,22 -13,0 -25,-3 -34,-7 -8,-4 -15,-9 -20,-15 -4,-5 -7,-12 -11,-22zm188 354l-32 0 0 -268 -2 6 -174 262 -31 0 0 -314 31 0 0 267 3 -6 173 -261 32 0 0 314zm578 -339l0 27c22,2 42,7 60,15 19,8 34,19 48,33 13,13 23,29 31,48 7,18 10,37 10,58 0,28 -6,54 -19,77 -13,23 -30,42 -53,56 -23,14 -48,21 -77,23l0 29 -31 0 0 -29c-22,-2 -41,-8 -59,-16 -18,-9 -34,-20 -46,-33 -13,-14 -23,-30 -30,-48 -7,-18 -11,-37 -11,-57 0,-22 4,-41 11,-59 6,-18 16,-34 28,-47 13,-14 29,-25 47,-34 18,-8 38,-13 60,-16l0 -27 31 0zm-31 310l0 -256c-12,1 -24,4 -35,9 -26,11 -45,27 -59,48 -13,20 -20,44 -20,72 0,21 4,41 13,59 9,17 22,32 39,43 17,12 37,20 62,25zm31 -256l0 257c18,-2 34,-7 49,-14 14,-8 27,-17 37,-28 10,-12 18,-25 24,-40 5,-14 8,-31 8,-48 0,-17 -3,-34 -9,-49 -6,-16 -14,-29 -25,-39 -12,-12 -27,-22 -46,-30 -13,-5 -25,-8 -38,-9zm422 4l-101 281 -34 0 119 -314 35 0 121 314 -38 0 -102 -281zm441 -39c30,0 59,7 85,22 26,14 46,34 61,59 15,25 23,52 23,81 0,30 -7,57 -22,82 -15,25 -35,45 -61,59 -25,15 -53,22 -83,22 -29,0 -57,-7 -83,-22 -25,-14 -46,-34 -61,-59 -14,-24 -22,-51 -22,-80 0,-29 8,-56 22,-81 15,-26 35,-46 60,-60 25,-15 52,-23 81,-23zm2 30c-24,0 -46,6 -66,18 -21,13 -37,29 -49,49 -12,21 -18,43 -18,67 0,23 6,45 18,65 12,20 28,36 49,48 21,12 44,18 68,18 18,0 35,-3 51,-10 16,-7 31,-16 43,-29 13,-12 22,-26 29,-42 7,-17 10,-34 10,-52 0,-23 -6,-45 -18,-65 -12,-21 -29,-37 -50,-49 -20,-12 -43,-18 -67,-18zm333 290l0 -314 82 0c21,0 38,1 51,3 12,3 23,7 33,14 9,5 16,12 22,20 7,8 11,16 15,26 3,10 5,20 5,31 0,15 -3,29 -9,41 -7,13 -15,23 -27,32 -7,4 -14,8 -22,12 -7,2 -16,5 -26,6 -10,1 -21,2 -34,2l-59 0 0 127 -31 0zm31 -156l54 0c16,0 29,0 38,-2 10,-2 18,-5 26,-10 8,-5 15,-13 20,-22 4,-9 7,-20 7,-31 0,-13 -4,-25 -10,-35 -7,-10 -17,-18 -29,-23 -11,-5 -28,-7 -49,-7l-6 0 -5 0 -5 0 -41 0 0 130zm574 156l-32 0 0 -268 -2 6 -174 262 -31 0 0 -314 31 0 0 267 2 -6 174 -261 32 0 0 314zm473 -234l-35 0c-9,-12 -17,-21 -26,-27 -11,-9 -24,-16 -39,-21 -14,-5 -29,-7 -44,-7 -23,0 -45,6 -65,18 -20,12 -37,28 -49,48 -12,20 -18,42 -18,65 0,24 6,46 19,66 12,21 28,37 48,49 21,12 43,18 66,18 21,0 41,-5 60,-15 10,-5 19,-10 25,-16 7,-5 15,-14 24,-26l35 0c-7,12 -12,20 -17,26 -5,6 -11,12 -18,19 -32,28 -69,42 -110,42 -30,0 -57,-7 -82,-22 -25,-14 -45,-34 -59,-59 -15,-25 -22,-52 -22,-82 0,-29 7,-56 22,-81 14,-25 34,-44 59,-59 25,-14 52,-21 82,-21 33,0 62,9 90,26 16,11 29,23 40,36 5,6 10,14 14,23zm209 234l0 -286 -71 0 0 -28 174 0 0 28 -71 0 0 286 -32 0zm493 0l-32 0 0 -268 -2 6 -174 262 -31 0 0 -314 31 0 0 267 2 -6 174 -261 32 0 0 314zm212 -163l138 -151 39 0 -136 150 145 164 -40 0 -146 -163zm-2 -151l0 314 -31 0 0 -314 31 0zm577 314l-31 0 0 -268 -3 6 -173 262 -32 0 0 -314 32 0 0 267 2 -6 174 -261 31 0 0 314z"/>
 </g>
</svg>
